<?xml version="1.0" encoding="UTF-8" standalone="no"?>
<svg width="32px" height="32px" viewBox="0 0 32 32" version="1.1" xmlns="http://www.w3.org/2000/svg" xmlns:xlink="http://www.w3.org/1999/xlink">
  <title>Facebook icon</title>
  <g id="socialIcon-facebook" transform="translate(-1.000000, 0.000000)" fill="#ffffff">
      <path d="M31.6667,0 L2.3337,0 C1.5967,0 0.9997,0.597 0.9997,1.333 L0.9997,30.667 C0.9997,31.403 1.5967,32 2.3337,32 L17.9997,32 L17.9997,20 L13.9997,20 L13.9997,15 L17.9997,15 L17.9997,11 C17.9997,6.867 20.6167,4.833 24.3037,4.833 C26.0697,4.833 27.5877,4.965 28.0297,5.023 L28.0297,9.343 L25.4727,9.344 C23.4677,9.344 22.9997,10.297 22.9997,11.695 L22.9997,15 L27.9997,15 L26.9997,20 L22.9997,20 L23.0797,32 L31.6667,32 C32.4027,32 32.9997,31.403 32.9997,30.667 L32.9997,1.333 C32.9997,0.597 32.4027,0 31.6667,0" id="facebook-icon" />
  </g>
</svg>
