<?xml version="1.0" encoding="UTF-8" standalone="no"?>
<svg width="32px" height="32px" viewBox="0 0 32 32" version="1.1" xmlns="http://www.w3.org/2000/svg" xmlns:xlink="http://www.w3.org/1999/xlink">
  <title>Github icon</title>
  <g id="socialIcon-github" transform="translate(-209.000000, -52.000000)" fill="#ffffff">
      <path d="M209,68.3961 C209,75.4641 213.584,81.4611 219.943,83.5771 C220.743,83.7241 221.035,83.2301 221.035,82.8061 C221.035,82.4261 221.021,81.4201 221.013,80.0851 C216.562,81.0521 215.623,77.9401 215.623,77.9401 C214.896,76.0921 213.847,75.6001 213.847,75.6001 C212.394,74.6071 213.957,74.6271 213.957,74.6271 C215.562,74.7401 216.407,76.2761 216.407,76.2761 C217.835,78.7211 220.152,78.0151 221.064,77.6051 C221.209,76.5711 221.623,75.8661 222.08,75.4661 C218.527,75.0621 214.792,73.6901 214.792,67.5591 C214.792,65.8121 215.415,64.3841 216.439,63.2651 C216.274,62.8601 215.725,61.2341 216.595,59.0311 C216.595,59.0311 217.939,58.6011 220.995,60.6711 C222.272,60.3161 223.64,60.1391 225.001,60.1321 C226.36,60.1391 227.729,60.3161 229.007,60.6711 C232.061,58.6011 233.402,59.0311 233.402,59.0311 C234.275,61.2341 233.726,62.8601 233.561,63.2651 C234.587,64.3841 235.206,65.8121 235.206,67.5591 C235.206,73.7051 231.465,75.0581 227.901,75.4541 C228.475,75.9481 228.987,76.9241 228.987,78.4171 C228.987,80.5561 228.967,82.2811 228.967,82.8061 C228.967,83.2341 229.255,83.7321 230.067,83.5751 C236.42,81.4551 241,75.4621 241,68.3961 C241,59.5581 233.836,52.3951 224.999,52.3951 C216.164,52.3951 209,59.5581 209,68.3961 Z" id="github-icon" />
  </g>
</svg>
