<?xml version="1.0" encoding="UTF-8" standalone="no"?>
<svg width="32px" height="30px" viewBox="0 0 32 30" version="1.1" xmlns="http://www.w3.org/2000/svg" xmlns:xlink="http://www.w3.org/1999/xlink">
  <title>Google+ icon</title>
  <g id="socialIcon-gpluss" transform="translate(-105.000000, -1.000000)" fill="#ffffff">
    <g id="Group-2" transform="translate(105.000000, 1.000000)">
      <path d="M10.5815,12.5754 C11.6465,12.5374 12.5335,12.1684 13.2435,11.4684 C13.5855,10.9734 13.8055,10.4644 13.9035,9.9434 C13.9615,9.4224 13.9915,8.9834 13.9915,8.6274 C13.9915,7.0884 13.5835,5.5364 12.7675,3.9724 C12.3855,3.2224 11.8825,2.6114 11.2575,2.1414 C10.6205,1.6964 9.8875,1.4614 9.0585,1.4354 C7.9625,1.4614 7.0505,1.8874 6.3245,2.7134 C5.7115,3.5784 5.4185,4.5454 5.4455,5.6124 C5.4455,7.0244 5.8735,8.4934 6.7295,10.0194 C7.1435,10.7314 7.6785,11.3354 8.3345,11.8314 C8.9895,12.3274 9.7385,12.5754 10.5815,12.5754 L10.5815,12.5754 Z M16.2205,24.0154 C16.2205,23.0254 15.8855,22.1624 15.2165,21.4264 C14.5075,20.7274 13.4005,19.8714 11.8935,18.8554 C11.6365,18.8304 11.3335,18.8174 10.9855,18.8174 C10.7795,18.7924 10.2515,18.8174 9.4015,18.8934 C8.5645,19.0084 7.7085,19.1924 6.8325,19.4454 C6.6265,19.5224 6.3365,19.6364 5.9635,19.7884 C5.5895,19.9534 5.2105,20.1884 4.8235,20.4934 C4.4505,20.8104 4.1345,21.2034 3.8775,21.6734 C3.5805,22.1684 3.4325,22.7654 3.4325,23.4634 C3.4325,24.8344 4.0765,25.9634 5.3645,26.8524 C6.5875,27.7414 8.2625,28.1984 10.3865,28.2234 C12.2935,28.1984 13.7485,27.7924 14.7525,27.0054 C15.7315,26.2304 16.2205,25.2344 16.2205,24.0154 L16.2205,24.0154 Z M14.6585,1.5494 C14.9125,1.7024 15.1975,1.9244 15.5155,2.2164 C15.8205,2.5204 16.1185,2.8954 16.4115,3.3394 C16.6905,3.7584 16.9375,4.2524 17.1535,4.8244 C17.3315,5.3954 17.4205,6.0614 17.4205,6.8224 C17.3965,8.2194 17.0775,9.3354 16.4625,10.1734 C16.1615,10.5794 15.8415,10.9534 15.5045,11.2964 C15.1305,11.6394 14.7335,11.9884 14.3115,12.3434 C14.0705,12.5844 13.8475,12.8574 13.6425,13.1624 C13.4015,13.4794 13.2815,13.8474 13.2815,14.2664 C13.2815,14.6724 13.4045,15.0084 13.6525,15.2754 C13.8615,15.5294 14.0665,15.7514 14.2645,15.9414 L15.6365,17.0264 C16.4885,17.6994 17.2365,18.4414 17.8795,19.2534 C18.4855,20.0784 18.8005,21.1574 18.8255,22.4904 C18.8255,24.3804 17.9595,26.0564 16.2295,27.5154 C14.4345,29.0254 11.8445,29.8064 8.4605,29.8574 C5.6275,29.8314 3.5125,29.2494 2.1155,28.1094 C0.7055,27.0444 0.0005,25.7714 0.0005,24.2894 C0.0005,23.5674 0.2295,22.7634 0.6885,21.8764 C1.1335,20.9894 1.9395,20.2104 3.1055,19.5394 C4.4155,18.8174 5.7915,18.3364 7.2335,18.0954 C8.6615,17.8924 9.8465,17.7794 10.7905,17.7534 C10.4985,17.3834 10.2385,16.9874 10.0105,16.5664 C9.7445,16.1584 9.6115,15.6674 9.6115,15.0924 C9.6115,14.7484 9.6625,14.4614 9.7635,14.2314 C9.8525,13.9894 9.9345,13.7654 10.0105,13.5624 C9.5515,13.6124 9.1185,13.6384 8.7115,13.6384 C6.5585,13.6124 4.9175,12.9594 3.7885,11.6774 C2.6065,10.4844 2.0165,9.0954 2.0165,7.5094 C2.0165,5.5934 2.8535,3.8544 4.5275,2.2934 C5.6775,1.3804 6.8715,0.7834 8.1115,0.5044 C9.3385,0.2634 10.4885,0.1424 11.5615,0.1424 L19.6505,0.1424 L17.1525,1.5494 L14.6585,1.5494 Z" id="gpluss-icon" />
      <polygon id="Fill-7" points="32 14 28 14 28 10 26 10 26 14 22 14 22 16 26 16 26 20 28 20 28 16 32 16" />
    </g>
  </g>
</svg>
