<?xml version="1.0" encoding="UTF-8" standalone="no"?>
<svg width="32px" height="32px" viewBox="0 0 32 32" version="1.1" xmlns="http://www.w3.org/2000/svg" xmlns:xlink="http://www.w3.org/1999/xlink">
    <title>Instagram icon</title>
    <g id="socialIcon-instagram" transform="translate(-365.000000, 0.000000)" fill="#ffffff">
        <path d="M393,29 L369,29 C368.448,29 368,28.552 368,28 L368,13 L372,13 C371.479,13.75 371.303,15.149 371.303,16.037 C371.303,21.392 375.67,25.749 381.037,25.749 C386.405,25.749 390.772,21.392 390.772,16.037 C390.772,15.149 390.646,13.771 390,13 L394,13 L394,28 C394,28.552 393.552,29 393,29 M381.037,9.898 C384.436,9.898 387.191,12.647 387.191,16.037 C387.191,19.428 384.436,22.177 381.037,22.177 C377.639,22.177 374.884,19.428 374.884,16.037 C374.884,12.647 377.639,9.898 381.037,9.898 M389,4 L392,4 C392.552,4 393,4.448 393,5 L393,8 C393,8.552 392.552,9 392,9 L389,9 C388.448,9 388,8.552 388,8 L388,5 C388,4.448 388.448,4 389,4 M393.196,0 L368.804,0 C366.703,0 365,1.699 365,3.795 L365,28.205 C365,30.301 366.703,32 368.804,32 L393.196,32 C395.297,32 397,30.301 397,28.205 L397,3.795 C397,1.699 395.297,0 393.196,0" id="instagram-icon"></path>
    </g>
</svg>
