<?xml version="1.0" encoding="UTF-8" standalone="no"?>
<svg width="32px" height="32px" viewBox="0 0 6986 6986" version="2.0" xmlns="http://www.w3.org/2000/svg" xmlns:xlink="http://www.w3.org/1999/xlink">
  <title>Instagram icon</title>
  <g id="socialIcon-instagram" fill="#ffffff">
      <path d="M3412 -12c-871,0 -994,5 -1356,21 -372,17 -627,76 -849,163 -230,89 -425,209 -620,404 -195,195 -314,390 -404,620 -86,223 -146,477 -163,849 -17,373 -21,492 -21,1443 0,950 4,1069 21,1443 17,372 76,627 163,849 89,230 209,425 404,620 195,195 390,314 620,404 223,86 477,146 849,163 373,17 492,21 1443,21 950,0 1069,-4 1443,-21 372,-17 627,-76 849,-163 230,-89 425,-209 620,-404 195,-195 314,-390 404,-620 86,-223 146,-477 163,-849 16,-362 21,-485 21,-1356l0 -173c0,-871 -5,-994 -21,-1356 -17,-372 -76,-627 -163,-849 -89,-230 -209,-425 -404,-620 -195,-195 -390,-314 -620,-404 -223,-86 -477,-146 -849,-163 -362,-16 -485,-21 -1356,-21l-173 0zm87 630c934,0 1045,4 1414,20 341,16 526,73 650,120 163,63 280,139 402,262 122,122 198,239 262,402 48,123 105,309 120,650 17,369 20,480 20,1414 0,934 -4,1045 -20,1414 -16,341 -73,526 -120,650 -63,163 -139,280 -262,402 -122,122 -239,198 -402,262 -123,48 -309,105 -650,120 -369,17 -480,20 -1414,20 -934,0 -1045,-4 -1414,-20 -341,-16 -526,-73 -650,-120 -163,-63 -280,-139 -402,-262 -122,-122 -198,-239 -262,-402 -48,-123 -105,-309 -120,-650 -17,-369 -20,-480 -20,-1414 0,-934 4,-1045 20,-1414 16,-341 73,-526 120,-650 63,-163 139,-280 262,-402 122,-122 239,-198 402,-262 123,-48 309,-105 650,-120 369,-17 480,-20 1414,-20z" id="instagram-icon"/>
      <path d="M3499 4654c-644,0 -1166,-522 -1166,-1166 0,-644 522,-1166 1166,-1166 644,0 1166,522 1166,1166 0,644 -522,1166 -1166,1166zm0 -2963c-992,0 -1797,804 -1797,1797 0,992 804,1797 1797,1797 992,0 1797,-804 1797,-1797 0,-992 -804,-1797 -1797,-1797z"/>
      <path d="M5786 1620c0,232 -188,420 -420,420 -232,0 -420,-188 -420,-420 0,-232 188,-420 420,-420 232,0 420,188 420,420z"/>
 </g>
</svg>
