<?xml version="1.0" encoding="UTF-8" standalone="no"?>
<svg width="32px" height="26px" viewBox="0 0 32 26" version="1.1" xmlns="http://www.w3.org/2000/svg" xmlns:xlink="http://www.w3.org/1999/xlink">
  <title>Twitter icon</title>
  <g id="socialIcon-twitter" transform="translate(-53.000000, -3.000000)" fill="#ffffff">
      <path d="M85,6.0756 C83.823,6.5976 82.557,6.9506 81.229,7.1096 C82.585,6.2966 83.626,5.0106 84.116,3.4776 C82.848,4.2296 81.442,4.7756 79.947,5.0706 C78.749,3.7946 77.043,2.9976 75.155,2.9976 C71.529,2.9976 68.59,5.9366 68.59,9.5626 C68.59,10.0766 68.648,10.5776 68.76,11.0586 C63.303,10.7846 58.466,8.1706 55.228,4.1986 C54.663,5.1686 54.339,6.2966 54.339,7.4996 C54.339,9.7766 55.498,11.7866 57.259,12.9636 C56.183,12.9296 55.171,12.6346 54.286,12.1426 C54.285,12.1706 54.285,12.1976 54.285,12.2256 C54.285,15.4066 56.548,18.0596 59.552,18.6626 C59.001,18.8126 58.421,18.8926 57.822,18.8926 C57.399,18.8926 56.988,18.8516 56.587,18.7756 C57.422,21.3836 59.847,23.2816 62.72,23.3346 C60.473,25.0956 57.642,26.1446 54.566,26.1446 C54.036,26.1446 53.514,26.1136 53,26.0536 C55.905,27.9156 59.356,29.0026 63.064,29.0026 C75.14,29.0026 81.743,18.9986 81.743,10.3236 C81.743,10.0386 81.737,9.7556 81.724,9.4736 C83.007,8.5486 84.12,7.3926 85,6.0756" id="twitter-icon" />
  </g>
</svg>
