<?xml version="1.0" standalone="no"?>
<!DOCTYPE svg PUBLIC "-//W3C//DTD SVG 20010904//EN"
 "http://www.w3.org/TR/2001/REC-SVG-20010904/DTD/svg10.dtd">
<svg version="1.0" xmlns="http://www.w3.org/2000/svg"
 width="1883.000000pt" height="1883.000000pt" viewBox="0 0 1883.000000 1883.000000"
 preserveAspectRatio="xMidYMid meet">
<metadata>
Created by potrace 1.11, written by Peter Selinger 2001-2013
</metadata>
<g transform="translate(0.000000,1883.000000) scale(0.100000,-0.100000)"
fill="#000000" stroke="none">
<path d="M11905 16054 c-1385 -71 -2500 -352 -3590 -904 -1268 -643 -2249
-1541 -2992 -2740 -685 -1104 -1160 -2565 -1258 -3865 -15 -206 -20 -754 -6
-789 6 -16 19 -7 96 64 628 582 1947 1626 2880 2282 156 109 576 390 633 423
17 11 32 24 32 29 0 20 213 440 300 591 167 290 411 646 624 910 778 964 1745
1516 2911 1664 765 97 1500 15 2100 -233 235 -98 539 -278 745 -442 122 -97
383 -362 472 -480 244 -321 409 -684 508 -1116 12 -54 24 -98 26 -98 1 0 32
44 68 98 287 430 700 711 1206 820 115 24 143 26 360 27 206 0 249 -3 349 -23
303 -61 593 -197 826 -385 39 -31 75 -55 80 -53 6 2 57 12 113 22 91 16 102
20 102 38 0 44 -92 386 -154 569 -318 951 -898 1735 -1761 2380 -417 312 -892
568 -1421 767 -610 229 -1258 365 -2054 431 -128 10 -1047 20 -1195 13z"/>
<path d="M13445 13006 c-885 -297 -1932 -744 -2990 -1277 -3671 -1847 -6926
-4459 -9396 -7539 -337 -421 -849 -1100 -849 -1127 0 -6 18 -26 40 -43 35 -28
43 -30 58 -19 9 8 123 102 252 209 3866 3214 6093 4844 8071 5908 498 268
1172 582 1586 738 l62 24 -53 -83 c-297 -455 -712 -1374 -1154 -2552 -211
-561 -478 -1323 -467 -1333 2 -3 66 36 142 85 723 473 1984 1136 3243 1705
1064 481 2335 986 3433 1365 125 43 227 81 227 85 0 4 -30 45 -67 90 -301 374
-449 816 -428 1280 l7 147 -39 -10 c-1149 -309 -2443 -754 -3082 -1063 -41
-20 -76 -34 -78 -32 -2 2 10 59 27 127 189 752 517 1518 937 2192 238 382 550
802 774 1041 l64 68 -26 46 c-14 25 -30 47 -35 49 -5 2 -122 -35 -259 -81z"/>
<path d="M16776 12025 c-240 -39 -448 -121 -653 -257 -143 -94 -341 -292 -435
-433 -310 -464 -361 -1036 -140 -1550 263 -607 890 -996 1552 -961 785 41
1417 625 1521 1403 17 127 6 412 -20 535 -136 630 -619 1112 -1252 1248 -134
29 -436 37 -573 15z"/>
<path d="M18390 9154 c-483 -492 -1126 -691 -1769 -548 -218 49 -443 145 -626
268 l-100 67 -340 -115 c-187 -64 -373 -128 -413 -143 l-74 -28 -63 -156
c-172 -425 -413 -881 -660 -1250 -393 -585 -846 -1046 -1370 -1394 -829 -551
-1761 -816 -2693 -767 -597 32 -1045 144 -1496 375 -276 141 -516 317 -746
547 -419 418 -682 902 -795 1465 -26 129 -55 360 -55 438 0 27 -5 47 -11 47
-21 0 -917 -600 -1394 -934 -370 -258 -1097 -793 -1313 -964 l-24 -19 55 -129
c164 -383 329 -673 544 -957 532 -702 1385 -1332 2298 -1697 624 -249 1305
-396 2145 -462 257 -20 1186 -17 1460 5 837 68 1526 203 2230 436 1650 548
3010 1550 3970 2925 611 876 1057 1874 1285 2871 20 88 39 168 41 178 9 31
-11 18 -86 -59z"/>
</g>
</svg>
