<?xml version="1.0" encoding="utf-8"?>
<!-- Generator: Adobe Illustrator 27.7.0, SVG Export Plug-In . SVG Version: 6.00 Build 0)  -->
<svg version="1.1" id="Layer_1" xmlns="http://www.w3.org/2000/svg" xmlns:xlink="http://www.w3.org/1999/xlink" x="0px" y="0px"
	 viewBox="0 0 510.2 226.8" style="enable-background:new 0 0 510.2 226.8;" xml:space="preserve">
<style type="text/css">
	.st0{fill:#FFFFFF;}
</style>
<path class="st0" d="M136.4,122.4c4.8,6,7.3,13.6,7.3,22.7c0,6.6-1.5,12.7-4.4,18.5c-2.9,5.8-7.9,10.5-14.8,14.3s-15.9,5.6-27.1,5.6
	H44.7V43.8h48.6c16.7,0,28.6,3.7,35.7,11c7.2,7.3,10.7,16.1,10.7,26.2c0,7-2,13.2-6,18.7c-4,5.5-9.8,9.4-17.4,11.6
	C124.8,112.8,131.5,116.5,136.4,122.4L136.4,122.4z M63.4,59.6v44.9h29.9c18.6,0,27.9-7.3,27.9-22c0-6.6-2.1-12-6.2-16.3
	c-4.1-4.3-11.4-6.5-21.8-6.5L63.4,59.6L63.4,59.6z M96.4,167.8c10.1,0,17.4-2.3,21.9-6.9c4.5-4.6,6.8-10.4,6.8-17.5
	c0-7.1-2.2-12.6-6.6-16.8c-4.4-4.3-11.1-6.4-20.2-6.4h-35v47.6L96.4,167.8L96.4,167.8z"/>
<path class="st0" d="M249.8,139.3h-69.9c0.1,9.6,2.9,17.3,8.2,23.1c5.3,5.8,12.4,8.8,21.2,8.8c6.3,0,11.7-1.6,16.1-4.8
	c4.5-3.2,7.8-7.8,10-13.9l13.8,6.1c-3.4,8.9-8.6,15.7-15.6,20.4c-7,4.7-15.5,7-25.5,7c-14.2,0-25.2-4.4-33.1-13.1
	c-7.9-8.7-11.8-21.2-11.8-37.3s3.9-29.5,11.8-38.8c7.9-9.3,18.8-14,32.9-14s23.7,3.8,31,11.4s10.9,18.7,10.9,33.3V139.3L249.8,139.3
	z M232.9,125.7v-2.2c0-8.9-2.2-15.7-6.6-20.5c-4.4-4.7-10.7-7.1-18.8-7.1c-8.5,0-15.2,2.6-20,7.9c-4.8,5.2-7.3,12.5-7.6,21.8
	L232.9,125.7L232.9,125.7z"/>
<path class="st0" d="M360.7,183.5h-20.7l-29.7-48.2l-17.9,18.1v30.1h-16.7V40.9h16.7v92.7l44.1-48.4h21.9l-36,38L360.7,183.5
	L360.7,183.5z"/>
<path class="st0" d="M465.6,183.5h-20.7l-29.7-48.2l-17.9,18.1v30.1h-16.7V40.9h16.7v92.7l44.1-48.4h21.9l-36,38L465.6,183.5
	L465.6,183.5z"/>
</svg>
