<svg width="399" height="94" viewBox="0 0 399 94" fill="none" xmlns="http://www.w3.org/2000/svg">
<g clip-path="url(#clip0)">
<path d="M0.19 0.0699958H35C35 0.0699958 63.78 -2.36 63.78 21.83C63.78 46.02 39 44.2 34.28 44.2L0 44.15V33.45H35.57C35.57 33.45 51.19 34.17 51.19 21.83C51.19 9.91 40.63 10.75 35.19 10.75H0.18L0.19 0.0699958Z" fill="white"/>
<path d="M59.09 52.18C64.39 55.35 69.15 61.07 69.15 70.42C69.15 94.61 44.36 93.24 39.63 93.24L0 93.27V82.55H40.67C40.67 82.55 56.46 82.76 56.57 70.42C56.64 61.94 51.25 55.49 46.1 52.18H59.09Z" fill="white"/>
<path d="M100.18 52.18H115.08V73.33C115.08 80.27 119.25 82.55 123.37 82.55H164.1L164.16 93.42H115C109.89 93.42 100.16 90.11 100.16 76.31L100.18 52.18Z" fill="white"/>
<path d="M164.21 33.51H122.07C117.94 33.51 115.07 33.11 115.07 28.38C115.07 27.64 115.07 16.87 115.14 16.05C115.14 11.05 117.7 10.77 121.83 10.77H164.16V0.0700014H116.16C116.16 0.0700014 100.18 -0.999999 100.18 16V27.88C100.18 43.15 111.58 44.15 116.69 44.15H164.11L164.21 33.51Z" fill="white"/>
<path d="M270.79 0.0899963C268.55 2.56 247.73 27.45 245.09 30.09C240.69 34.43 232.81 33.5 226.43 33.5C220.05 33.5 218.84 28.59 218.84 25.25C218.84 21.91 218.84 3.13 218.84 0.119996H204C204 3.3 204.05 29.37 204.05 33.5C204.05 36.78 205.59 44.22 218.79 44.22H244.23C247.5 44.22 252.43 42.22 258.08 35.54C259.75 33.54 283.93 4.48 287.85 0.159996L270.79 0.0899963Z" fill="white"/>
<path d="M256.2 58.87C253.09 55.51 250.25 52.18 240.46 52.18H218.78C207.93 52.18 204.07 60.05 204.07 64.18V93.28H218.84C218.84 90.28 218.84 71.56 218.84 68.22C218.84 64.88 219.84 63 226.3 63C232.76 63 231.69 63 232.41 63C238.52 63 241.94 63.22 245.09 66.36C247.72 68.98 269.35 90.64 271.84 93.25H288.84C284.7 88.77 258 60.77 256.2 58.87Z" fill="white"/>
<path d="M380.43 0.119995C378.19 2.59 357.37 27.48 354.73 30.12C350.33 34.46 342.45 33.53 336.07 33.53C329.69 33.53 328.48 28.62 328.48 25.28C328.48 21.94 328.48 3.16 328.48 0.149995H313.62C313.62 3.33 313.67 29.4 313.67 33.53C313.67 36.81 315.21 44.25 328.41 44.25H353.85C357.12 44.25 362.05 42.25 367.7 35.57C369.37 33.57 393.55 4.51 397.47 0.189995L380.43 0.119995Z" fill="white"/>
<path d="M365.84 58.9C362.73 55.54 359.89 52.21 350.1 52.21H328.41C317.56 52.21 313.7 60.08 313.7 64.21V93.31H328.47C328.47 90.31 328.47 71.59 328.47 68.25C328.47 64.91 329.48 63 336 63C342.52 63 341.39 63 342.11 63C348.22 63 351.64 63.22 354.79 66.36C357.39 69 379 90.65 381.51 93.27H398.51C394.34 88.81 367.6 60.8 365.84 58.9Z" fill="white"/>
</g>
<defs>
<clipPath id="clip0">
<rect width="398.51" height="93.42" fill="white"/>
</clipPath>
</defs>
</svg>
