<?xml version="1.0" encoding="UTF-8" standalone="no"?>
<svg
   xmlns:dc="http://purl.org/dc/elements/1.1/"
   xmlns:cc="http://creativecommons.org/ns#"
   xmlns:rdf="http://www.w3.org/1999/02/22-rdf-syntax-ns#"
   xmlns:svg="http://www.w3.org/2000/svg"
   xmlns="http://www.w3.org/2000/svg"
   viewBox="0 0 361.84 82.066666"
   height="82.066666"
   width="361.84"
   xml:space="preserve"
   id="svg2"
   version="1.1"><metadata
     id="metadata8"><rdf:RDF><cc:Work
         rdf:about=""><dc:format>image/svg+xml</dc:format><dc:type
           rdf:resource="http://purl.org/dc/dcmitype/StillImage" /></cc:Work></rdf:RDF></metadata><defs
     id="defs6" /><g
     transform="matrix(1.3333333,0,0,-1.3333333,0,82.066667)"
     id="g10"><g
       transform="scale(0.1)"
       id="g12"><path
         id="path14"
         style="fill:#ffffff;fill-opacity:1;fill-rule:nonzero;stroke:none"
         d="m 450.547,458.883 h -64.68 c -20.242,0 -22.722,-2.5 -46.187,-26.133 C 327.871,420.895 133.113,224.746 133.113,224.746 v 327.34 c 0,10.996 -6.004,17.051 -17.039,17.051 H 17.0508 C 6.01563,569.137 0,563.082 0,552.086 V 508.082 C 0,496.969 6.01563,490.953 17.0508,490.953 H 53.2813 V 87.207 H 17.2344 C 6.21094,87.207 0.195313,81.1914 0.195313,70.1953 V 26.1719 C 0.195313,15.1367 6.21094,8.92578 17.2344,8.92578 H 168.699 c 11.047,0 17.102,6.01562 17.102,17.05082 v 44.0429 c 0,11.1133 -6.055,17.1875 -17.102,17.1875 h -35.586 v 32.656 l 77.563,78.77 L 347.207,31.7383 C 365.168,8.92578 365.168,8.92578 391.445,8.92578 h 58.977 c 10.965,0 17,6.01562 17,17.05082 v 44.0429 c 0,11.0352 -6.035,17.0313 -17,17.0313 H 401.785 L 265.957,254.688 390.098,380.543 h 60.449 c 11.211,0 17.058,5.527 17.058,16.406 v 44.844 c 0,11.035 -6.042,17.09 -17.058,17.09" /><path
         id="path16"
         style="fill:#ffffff;fill-opacity:1;fill-rule:nonzero;stroke:none"
         d="M 983.945,87.0508 H 948.074 V 279.629 c 0,114.644 -72.207,188.726 -183.886,188.726 -51.493,0 -94.715,-15.878 -128.504,-47.167 v 20.41 c 0,11.035 -6.036,17.09 -17.032,17.09 h -97.695 c -11.055,0 -17.09,-5.86 -17.09,-16.954 V 397.75 c 0,-11.035 6.035,-17.187 17.071,-17.187 H 556.77 V 87.0508 h -35.832 c -11.036,0 -17.071,-5.9961 -17.071,-17.0313 V 25.9766 c 0,-10.9961 6.035,-17.05082 17.071,-17.05082 h 150.644 c 11.035,0 17.051,6.05472 17.051,17.05082 v 44.0429 c 0,11.0352 -6.016,17.0313 -17.051,17.0313 H 635.684 V 265.898 c 0,73.457 51.652,126.774 122.754,126.774 69.238,0 110.593,-44.938 110.593,-120.328 V 87.0508 H 833.23 c -11.074,0 -17.125,-5.9961 -17.125,-17.0313 V 25.9766 c 0,-10.9961 6.051,-17.05082 17.125,-17.05082 h 150.715 c 11.035,0 17.065,6.05472 17.065,17.05082 v 44.0429 c 0,11.0352 -6.03,17.0313 -17.065,17.0313" /><path
         id="path18"
         style="fill:#ffffff;fill-opacity:1;fill-rule:nonzero;stroke:none"
         d="m 1228.67,76.5625 c -82.94,0 -147.95,69.6285 -147.95,158.4765 0,88.887 62.96,155.973 146.39,155.973 83.4,0 148.78,-69.586 148.78,-158.395 0,-88.965 -63.28,-156.0545 -147.22,-156.0545 z m 0,391.1095 C 1099.64,467.672 998.563,364.391 998.563,232.617 998.563,102.227 1098.96,0 1227.11,0 c 129.56,0 231.02,103.223 231.02,235.039 0,130.465 -100.77,232.633 -229.46,232.633" /><path
         id="path20"
         style="fill:#ffffff;fill-opacity:1;fill-rule:nonzero;stroke:none"
         d="m 2127.46,458.688 h -154.78 c -11.04,0 -17.09,-6.055 -17.09,-17.09 v -44.004 c 0,-10.996 6.05,-17.031 17.09,-17.031 h 34.78 L 1933.7,142.188 1829.33,445.895 c -2.86,8.144 -10.47,13.574 -18.95,13.574 h -30.86 c -8.59,0 -16.21,-5.43 -19.02,-13.574 l -103.34,-303.571 -73.8,238.239 h 34.83 c 11.02,0 17.03,6.035 17.03,17.031 v 44.004 c 0,11.035 -6.01,17.09 -17.03,17.09 h -156.5 c -11.07,0 -17.13,-6.055 -17.13,-17.09 v -44.004 c 0,-10.996 6.06,-17.031 17.13,-17.031 h 36.76 L 1621.12,20.4492 c 2.85,-7.8711 10.39,-13.22264 18.79,-13.22264 h 33.34 c 8.54,0 16.13,5.46874 18.89,13.57424 L 1794.79,315.918 1896.94,20.8008 c 2.74,-8.1055 10.35,-13.57424 18.95,-13.57424 h 33.36 c 8.41,0 15.95,5.35154 18.76,13.18364 l 122.73,360.1528 h 36.72 c 11.09,0 17.15,6.035 17.15,17.031 v 44.004 c 0,11.035 -6.06,17.09 -17.15,17.09" /><path
         id="path22"
         style="fill:#ffffff;fill-opacity:1;fill-rule:nonzero;stroke:none"
         d="m 2346.5,87.0508 h -35.84 V 441.598 c 0,11.035 -6.05,17.09 -17.11,17.09 h -98.59 c -11.05,0 -17.07,-6.055 -17.07,-17.09 v -44.004 c 0,-10.996 6.02,-17.031 17.07,-17.031 h 35.9 V 87.0508 h -65.16 c -11.01,0 -17.05,-5.9961 -17.05,-17.0313 V 25.9766 c 0,-10.9961 6.04,-17.05082 17.05,-17.05082 h 180.8 c 11.08,0 17.13,6.05472 17.13,17.05082 v 44.0429 c 0,11.0352 -6.05,17.0313 -17.13,17.0313" /><path
         id="path24"
         style="fill:#ffffff;fill-opacity:1;fill-rule:nonzero;stroke:none"
         d="m 2696.72,237.637 h -43.36 c -11.06,0 -17.11,-5.996 -17.11,-17.032 v -83.359 c 0,-28.652 -20.41,-58.3397 -54.59,-58.3397 -42.91,0 -61.19,17.8515 -61.19,59.5707 v 242.066 h 104.71 c 11.03,0 17.09,6.055 17.09,17.051 v 44.004 c 0,11.035 -6.06,17.09 -17.09,17.09 h -104.71 v 93.554 c 0,11.035 -6.04,17.09 -17.07,17.09 h -45.61 c -11.07,0 -17.13,-6.055 -17.13,-17.09 v -93.554 h -47.67 c -11.04,0 -17.09,-6.055 -17.09,-17.09 v -44.004 c 0,-10.996 6.05,-17.051 17.09,-17.051 h 47.67 v -246.07 c 0,-80.6839 52.78,-132.83237 134.42,-132.83237 84.28,0 138.71,50.44917 138.71,128.57437 v 90.39 c 0,11.036 -6.02,17.032 -17.07,17.032" /><path
         id="path26"
         style="fill:#ffffff;fill-opacity:1;fill-rule:nonzero;stroke:none"
         d="m 2269.77,515.504 c 27.61,0 50,22.383 50,50 0,27.559 -22.39,50 -50,50 -27.58,0 -50,-22.441 -50,-50 0,-27.617 22.42,-50 50,-50" /></g></g></svg>