<?xml version="1.0" encoding="utf-8"?>
<!-- Generator: Adobe Illustrator 16.0.0, SVG Export Plug-In . SVG Version: 6.00 Build 0)  -->
<!DOCTYPE svg PUBLIC "-//W3C//DTD SVG 1.1//EN" "http://www.w3.org/Graphics/SVG/1.1/DTD/svg11.dtd">
<svg version="1.1" id="Layer_1" xmlns="http://www.w3.org/2000/svg" xmlns:xlink="http://www.w3.org/1999/xlink" x="0px" y="0px"
	 width="239px" height="59px" viewBox="0 0 239 59" enable-background="new 0 0 239 59" xml:space="preserve">
<g>
	<g id="I_16_">
		<polygon fill="#FFFFFF" points="120.49,55.778 131.693,12.989 142.641,12.989 131.639,55.778 		"/>
		<path fill="#FFFFFF" d="M142.285,13.265l-10.859,42.237h-10.578l11.059-42.237H142.285 M142.996,12.712h-0.711h-10.379h-0.426
			l-0.109,0.413l-11.059,42.237l-0.18,0.691h0.715h10.578h0.428l0.107-0.414l10.857-42.237L142.996,12.712L142.996,12.712z"/>
	</g>
	<g id="L_16_">
		<polygon fill="#FFFFFF" points="137.949,55.778 146.279,23.901 157.434,23.901 149.104,55.778 		"/>
		<path fill="#FFFFFF" d="M157.076,24.177l-8.186,31.325h-10.584l8.186-31.325H157.076 M157.791,23.625h-0.715h-10.584h-0.426
			l-0.107,0.413l-8.188,31.325l-0.18,0.691h0.715h10.584h0.426l0.107-0.412l8.186-31.325L157.791,23.625L157.791,23.625z"/>
	</g>
	<g id="N_32_">
		<path fill="#FFFFFF" d="M180.557,55.778l4.736-18.132c0.678-2.627,1.021-4.201,1.021-4.681c0-1.001-0.355-1.765-1.092-2.333
			c-0.746-0.578-1.812-0.872-3.166-0.872c-1.494,0-3.186,0.514-5.029,1.53c-1.842,1.014-3.309,2.371-4.361,4.035
			c-0.768,1.19-1.65,3.674-2.621,7.386l-3.41,13.066h-11.15l8.33-31.877h10.596l-0.941,3.71c2.297-1.527,4.477-2.646,6.488-3.328
			c2.197-0.744,4.541-1.12,6.967-1.12c3.266,0,5.885,0.764,7.787,2.271c1.914,1.523,2.887,3.571,2.887,6.086
			c0,1.138-0.402,3.206-1.227,6.324l-4.662,17.934H180.557z"/>
		<path fill="#FFFFFF" d="M186.924,23.438c3.219,0,5.756,0.738,7.615,2.212c1.855,1.476,2.781,3.431,2.781,5.87
			c0,1.102-0.404,3.188-1.215,6.254l-4.609,17.728h-10.582l4.646-17.786c0.686-2.654,1.031-4.238,1.031-4.75
			c0-1.081-0.398-1.932-1.199-2.551c-0.799-0.619-1.91-0.93-3.336-0.93c-1.549,0-3.27,0.521-5.162,1.563s-3.379,2.419-4.461,4.13
			c-0.789,1.22-1.672,3.706-2.654,7.463l-3.357,12.86h-10.58l8.186-31.325h10.027l-1.031,4.069c2.508-1.729,4.848-2.964,7.023-3.702
			C182.223,23.808,184.516,23.438,186.924,23.438 M186.924,22.886c-2.457,0-4.83,0.382-7.055,1.135
			c-1.859,0.631-3.859,1.629-5.959,2.972l0.68-2.681l0.176-0.688h-0.711h-10.027H163.6l-0.107,0.413l-8.186,31.325l-0.18,0.691
			h0.715h10.58h0.426l0.107-0.412l3.357-12.86c0.963-3.683,1.832-6.14,2.584-7.303c1.031-1.629,2.465-2.955,4.264-3.946
			c1.803-0.991,3.449-1.495,4.896-1.495c1.291,0,2.301,0.274,2.998,0.814c0.662,0.513,0.984,1.204,0.984,2.114
			c0,0.313-0.176,1.368-1.014,4.612l-4.646,17.784l-0.18,0.691h0.715h10.582h0.426l0.107-0.413l4.609-17.728
			c0.83-3.14,1.234-5.231,1.234-6.393c0-2.604-1.006-4.724-2.99-6.302C192.93,23.671,190.254,22.886,186.924,22.886L186.924,22.886z
			"/>
	</g>
	<g id="E_16_">
		<path fill="#FFFFFF" d="M218.025,56.516c-5.301,0-9.676-1.365-13.004-4.058c-3.346-2.706-5.043-6.337-5.043-10.791
			c0-4.338,1.525-8.249,4.531-11.627c4.092-4.564,10.004-6.877,17.572-6.877c4.836,0,8.742,1.217,11.607,3.618
			c2.879,2.415,4.34,5.835,4.34,10.167c0,2.06-0.252,3.942-0.75,5.596l-0.059,0.197h-26.496c-0.012,0.203-0.018,0.366-0.018,0.491
			c0,1.992,0.717,3.618,2.135,4.833c1.428,1.229,3.197,1.852,5.26,1.852c3.4,0,6.09-1.428,7.994-4.243l0.096-0.142l10.062,1.346
			l-0.219,0.36c-1.861,3.081-4.387,5.424-7.508,6.964C225.414,55.737,221.881,56.516,218.025,56.516z M227.832,37.025
			c0.016-0.241,0.021-0.435,0.021-0.579c0-2.224-0.627-3.911-1.861-5.017c-1.246-1.107-2.945-1.668-5.051-1.668
			c-2.117,0-4.039,0.646-5.717,1.92c-1.594,1.212-2.715,3.009-3.334,5.344H227.832z"/>
		<path fill="#FFFFFF" d="M222.082,23.438c4.795,0,8.604,1.186,11.432,3.554c2.826,2.371,4.238,5.688,4.238,9.955
			c0,2.046-0.246,3.886-0.736,5.517h-26.547c-0.027,0.335-0.039,0.59-0.039,0.768c0,2.085,0.744,3.767,2.232,5.043
			c1.486,1.279,3.301,1.918,5.439,1.918c3.512,0,6.254-1.455,8.223-4.365l9.475,1.268c-1.842,3.049-4.309,5.336-7.393,6.859
			c-3.086,1.521-6.545,2.285-10.381,2.285c-5.26,0-9.537-1.332-12.83-3.996c-3.295-2.665-4.939-6.189-4.939-10.576
			c0-4.287,1.486-8.102,4.461-11.443C208.771,25.7,214.561,23.438,222.082,23.438 M211.537,37.302h16.555
			c0.025-0.373,0.039-0.658,0.039-0.855c0-2.32-0.654-4.059-1.955-5.223c-1.303-1.158-3.049-1.738-5.234-1.738
			c-2.189,0-4.15,0.659-5.883,1.977C213.326,32.778,212.152,34.727,211.537,37.302 M222.082,22.886
			c-7.65,0-13.631,2.345-17.777,6.969c-3.053,3.431-4.602,7.405-4.602,11.812c0,4.542,1.73,8.244,5.145,11.006
			c3.379,2.732,7.812,4.118,13.178,4.118c3.898,0,7.473-0.788,10.625-2.342c3.168-1.564,5.732-3.942,7.621-7.069l0.436-0.721
			l-0.834-0.111l-9.477-1.268l-0.338-0.046l-0.191,0.283c-1.877,2.774-4.416,4.123-7.766,4.123c-1.996,0-3.705-0.601-5.08-1.784
			c-1.373-1.178-2.039-2.69-2.039-4.625c0-0.062,0.002-0.134,0.004-0.216h26.029h0.41l0.117-0.393
			c0.506-1.68,0.762-3.589,0.762-5.676c0-4.417-1.492-7.908-4.438-10.378C230.949,24.125,226.984,22.886,222.082,22.886
			L222.082,22.886z M212.254,36.75c0.619-2.106,1.672-3.735,3.139-4.849c1.627-1.237,3.494-1.864,5.549-1.864
			c2.035,0,3.674,0.538,4.867,1.599c1.174,1.05,1.77,2.669,1.77,4.811c0,0.084-0.002,0.186-0.008,0.304H212.254L212.254,36.75z"/>
	</g>
	<path fill="#F9A11B" stroke="#FFFFFF" stroke-width="0.5591" d="M159.193,15.618c0,2.959-2.576,5.357-5.75,5.357
		c-3.18,0-5.752-2.398-5.752-5.357s2.572-5.359,5.752-5.359C156.617,10.259,159.193,12.659,159.193,15.618z"/>
	<path fill-rule="evenodd" clip-rule="evenodd" fill="#F9A11B" stroke="#FFFFFF" stroke-width="0.5521" d="M0,58.39
		c19.63-19.177,35.583-27.692,45.363-32.053c-1.777,3.476-3.838,17.375-3.838,17.375s30.709-25.679,84.092-29.541
		c-3.312-0.295-6.638-0.431-9.943-0.431c-29.243,0-57.129,10.601-63.955,14.838c1.178-8.623,5.083-14.183,5.083-14.183
		S28.807,19.253,0,58.39z"/>
	<g id="N_31_">
		<path fill="#FFFFFF" d="M103.252,55.778l4.735-18.132c0.846-3.256,1.023-4.343,1.023-4.681c0-1-0.356-1.763-1.09-2.333
			c-0.748-0.578-1.814-0.872-3.168-0.872c-1.494,0-3.186,0.514-5.029,1.53c-1.842,1.013-3.31,2.37-4.363,4.035
			c-0.769,1.195-1.65,3.679-2.621,7.386l-3.407,13.066H78.178l8.331-31.877h10.599l-0.943,3.709c2.296-1.526,4.477-2.645,6.49-3.328
			c2.195-0.744,4.539-1.12,6.966-1.12c3.268,0,5.887,0.764,7.785,2.271c1.917,1.524,2.887,3.572,2.887,6.086
			c0,1.135-0.4,3.203-1.225,6.324l-4.662,17.934H103.252z"/>
		<path fill="#FFFFFF" d="M109.619,23.438c3.221,0,5.758,0.738,7.613,2.212c1.855,1.476,2.783,3.431,2.783,5.87
			c0,1.102-0.406,3.188-1.217,6.254l-4.607,17.728h-10.582l4.645-17.786c0.689-2.654,1.032-4.238,1.032-4.75
			c0-1.081-0.399-1.932-1.196-2.551c-0.801-0.619-1.914-0.93-3.338-0.93c-1.548,0-3.27,0.521-5.162,1.563
			c-1.895,1.042-3.381,2.419-4.463,4.13c-0.785,1.22-1.671,3.706-2.654,7.463l-3.354,12.86H78.535l8.187-31.325h10.03l-1.035,4.069
			c2.508-1.729,4.85-2.964,7.025-3.702C104.917,23.808,107.209,23.438,109.619,23.438 M109.619,22.886
			c-2.457,0-4.83,0.382-7.054,1.135c-1.861,0.631-3.861,1.629-5.959,2.972l0.682-2.68l0.175-0.688h-0.71h-10.03h-0.426l-0.108,0.413
			l-8.187,31.325l-0.181,0.691h0.715h10.584h0.427l0.107-0.412l3.354-12.86c0.963-3.678,1.832-6.136,2.584-7.304
			c1.03-1.629,2.464-2.954,4.265-3.945c1.802-0.991,3.449-1.495,4.896-1.495c1.292,0,2.301,0.274,3,0.814
			c0.661,0.514,0.982,1.205,0.982,2.114c0,0.264-0.132,1.213-1.014,4.611l-4.645,17.785l-0.181,0.691h0.715h10.582h0.427
			l0.107-0.413l4.607-17.728c0.832-3.142,1.234-5.233,1.234-6.393c0-2.603-1.005-4.724-2.99-6.302
			C115.628,23.671,112.951,22.886,109.619,22.886L109.619,22.886z"/>
	</g>
	<g>
		<path fill="#FFFFFF" d="M44.246,56.68c-5.793,0-10.729-1.152-14.67-3.424c-3.944-2.274-6.781-5.138-8.434-8.512
			c-0.184-0.375-0.352-0.751-0.515-1.125l-0.087-0.201l0.176-0.131c3.571-2.649,7.209-5.111,10.813-7.318l0.361-0.222l0.056,0.42
			c0.373,2.777,1.604,5.181,3.661,7.146c2.526,2.413,5.901,3.637,10.033,3.637c3.368,0,6.652-0.973,9.761-2.891
			s5.72-4.87,7.759-8.776c0.471-0.903,0.896-1.832,1.298-2.84l0.04-0.1l0.097-0.047c4.625-2.22,9.465-4.261,14.383-6.066
			l0.411-0.151l-0.041,0.436c-0.437,4.665-1.947,9.242-4.489,13.602c-3.081,5.288-7.324,9.415-12.612,12.267
			C56.962,55.234,50.906,56.68,44.246,56.68z"/>
		<path fill="#FFFFFF" d="M79.073,26.49c-0.433,4.621-1.905,9.119-4.452,13.489c-3.07,5.27-7.238,9.322-12.505,12.162
			s-11.224,4.262-17.87,4.262c-5.773,0-10.617-1.13-14.532-3.387c-3.915-2.258-6.688-5.056-8.323-8.394
			c-0.182-0.371-0.349-0.743-0.51-1.114c3.58-2.656,7.174-5.089,10.793-7.305c0.38,2.834,1.615,5.275,3.743,7.309
			c2.591,2.476,5.999,3.714,10.224,3.714c3.436,0,6.738-0.978,9.906-2.932s5.787-4.916,7.858-8.884
			c0.501-0.961,0.93-1.914,1.31-2.865C68.945,30.516,73.744,28.446,79.073,26.49 M79.705,25.67l-0.822,0.301
			c-4.926,1.809-9.773,3.853-14.407,6.076l-0.194,0.094l-0.08,0.199c-0.399,0.999-0.82,1.92-1.287,2.815
			c-2.015,3.86-4.592,6.777-7.659,8.669c-3.065,1.891-6.3,2.85-9.616,2.85c-4.058,0-7.369-1.198-9.842-3.562
			c-2.01-1.921-3.213-4.27-3.577-6.982l-0.113-0.84l-0.723,0.442c-3.612,2.211-7.256,4.678-10.834,7.332L20.2,43.326l0.175,0.402
			c0.165,0.379,0.335,0.759,0.52,1.138c1.677,3.423,4.551,6.326,8.543,8.629c3.983,2.296,8.966,3.46,14.808,3.46
			c6.706,0,12.806-1.456,18.132-4.327c5.333-2.876,9.613-7.038,12.72-12.37c2.562-4.396,4.084-9.011,4.525-13.716L79.705,25.67
			L79.705,25.67z"/>
	</g>
	<g>
		<path fill="#FFFFFF" d="M18.687,33.698c0.087-2.948,0.638-6.056,1.639-9.24c1.44-4.699,3.668-8.837,6.623-12.297
			c2.957-3.463,6.735-6.238,11.229-8.247c4.494-2.009,9.677-3.028,15.405-3.028c7.693,0,14.001,2.093,18.749,6.221
			c2.923,2.543,4.978,5.644,6.106,9.218l0.088,0.278l-0.283,0.072c-4.12,1.054-8.186,2.258-12.083,3.579l-0.287,0.098l-0.07-0.295
			c-0.566-2.386-1.712-4.381-3.406-5.928c-2.555-2.332-5.862-3.515-9.828-3.515c-6.105,0-11.142,2.488-14.97,7.395
			c-0.903,1.159-1.727,2.393-2.446,3.667l-0.034,0.061l-0.06,0.037c-5.38,3.374-10.733,7.457-15.911,12.136l-0.48,0.434
			L18.687,33.698z"/>
		<path fill="#FFFFFF" d="M53.582,1.163c7.661,0,13.85,2.051,18.567,6.153c2.903,2.525,4.908,5.559,6.024,9.093
			c-4.428,1.133-8.498,2.363-12.104,3.585c-0.576-2.429-1.727-4.459-3.488-6.068c-2.62-2.392-5.958-3.587-10.014-3.587
			c-6.225,0-11.287,2.501-15.188,7.501c-0.939,1.205-1.757,2.44-2.469,3.701c-4.821,3.023-10.219,6.986-15.949,12.165
			c0.086-2.912,0.621-5.967,1.626-9.165c1.437-4.687,3.626-8.753,6.569-12.2c2.942-3.446,6.653-6.172,11.132-8.174
			C42.768,2.165,47.865,1.163,53.582,1.163 M53.582,0.611c-5.767,0-10.988,1.027-15.518,3.052
			c-4.532,2.026-8.343,4.825-11.326,8.319c-2.979,3.488-5.225,7.659-6.677,12.397c-1.007,3.204-1.562,6.337-1.65,9.31l-0.038,1.294
			l0.96-0.868c5.166-4.667,10.506-8.741,15.873-12.106l0.119-0.074l0.069-0.122c0.713-1.263,1.528-2.485,2.423-3.633
			c3.772-4.836,8.736-7.288,14.752-7.288c3.895,0,7.139,1.158,9.642,3.442c1.652,1.509,2.77,3.457,3.323,5.788l0.14,0.59
			l0.575-0.195c3.891-1.318,7.95-2.521,12.063-3.573l0.565-0.145L78.7,16.243c-1.144-3.623-3.226-6.766-6.188-9.343
			C67.713,2.727,61.344,0.611,53.582,0.611L53.582,0.611z"/>
	</g>
</g>
</svg>
