<svg width="139" height="139" viewBox="0 0 139 139" fill="none" xmlns="http://www.w3.org/2000/svg">
<path d="M99.2857 9.59774L71.4597 58.254L98.7989 58.666L45.4615 139L66.788 74.2086L39.7143 74.1265L70.5957 0C70.5957 0 78.688 0.266117 85.6489 2.58022C92.5912 4.88854 99.2857 9.59774 99.2857 9.59774Z" fill="#FAB759"/>
<path d="M111.201 13.5674C113.803 15.527 116.287 17.6834 118.656 20.0349C125.211 26.6708 130.24 34.2186 133.744 42.676C137.248 51.1341 139 60.0152 139 69.3191C139 78.6231 137.248 87.4874 133.744 95.9129C130.24 104.338 125.211 111.869 118.656 118.505C112.038 125.142 104.51 130.217 96.074 133.73C87.6378 137.243 78.7798 139 69.5 139C63.3566 139 57.4053 138.23 51.6462 136.69L68.7808 114.694C69.0206 114.698 69.2603 114.699 69.5 114.699C77.871 114.699 85.4803 112.65 92.3261 108.552C99.1728 104.452 104.64 98.9712 108.728 92.1067C112.816 85.243 114.86 77.6466 114.86 69.3191C114.86 60.9263 112.816 53.2972 108.728 46.4335C105.761 41.4533 102.07 37.2008 97.6518 33.6768L111.201 13.5674ZM62.3017 0L47.905 29.3339C47.525 29.5457 47.1474 29.7643 46.7716 29.9896C39.9257 34.088 34.4581 39.5699 30.3703 46.4335C26.2817 53.2972 24.2378 60.9263 24.2378 69.3191C24.2378 77.6466 26.2817 85.243 30.3703 92.1067C34.1181 98.4001 39.0261 103.532 45.0935 107.501L36.5128 130.624C30.6718 127.432 25.3144 123.392 20.4415 118.505C13.822 111.869 8.76111 104.338 5.25633 95.9129C1.75239 87.4874 0 78.6231 0 69.3191C0 60.0152 1.75239 51.1341 5.25633 42.676C8.76111 34.2186 13.822 26.6708 20.4415 20.0349C27.0601 13.4635 34.5717 8.4213 42.9753 4.90824C49.1788 2.31469 55.6212 0.678327 62.3017 0Z" fill="white"/>
</svg>
