<?xml version="1.0" encoding="UTF-8" standalone="no"?>
<!-- Created with Inkscape (http://www.inkscape.org/) -->

<svg
   xmlns:dc="http://purl.org/dc/elements/1.1/"
   xmlns:cc="http://creativecommons.org/ns#"
   xmlns:rdf="http://www.w3.org/1999/02/22-rdf-syntax-ns#"
   xmlns:svg="http://www.w3.org/2000/svg"
   xmlns="http://www.w3.org/2000/svg"
   xmlns:sodipodi="http://sodipodi.sourceforge.net/DTD/sodipodi-0.dtd"
   xmlns:inkscape="http://www.inkscape.org/namespaces/inkscape"
   width="246"
   height="53"
   id="svg3359"
   version="1.1"
   inkscape:version="0.48.4 r9939"
   sodipodi:docname="New document 11">
  <defs
     id="defs3361" />
  <sodipodi:namedview
     id="base"
     pagecolor="#ffffff"
     bordercolor="#666666"
     borderopacity="1.0"
     inkscape:pageopacity="0.0"
     inkscape:pageshadow="2"
     inkscape:zoom="1.5273506"
     inkscape:cx="272.48737"
     inkscape:cy="50.413055"
     inkscape:document-units="px"
     inkscape:current-layer="layer1"
     showgrid="false"
     inkscape:window-width="1920"
     inkscape:window-height="1056"
     inkscape:window-x="0"
     inkscape:window-y="0"
     inkscape:window-maximized="1" />
  <metadata
     id="metadata3364">
    <rdf:RDF>
      <cc:Work
         rdf:about="">
        <dc:format>image/svg+xml</dc:format>
        <dc:type
           rdf:resource="http://purl.org/dc/dcmitype/StillImage" />
        <dc:title></dc:title>
      </cc:Work>
    </rdf:RDF>
  </metadata>
  <g
     inkscape:label="Layer 1"
     inkscape:groupmode="layer"
     id="layer1"
     transform="translate(0,-999.36218)">
    <path
       inkscape:connector-curvature="0"
       id="path3144"
       style="fill:#f47216;fill-opacity:1;fill-rule:nonzero;stroke:none;display:inline"
       d="m 133.99986,1035.9662 c -0.19843,0.1313 -0.43765,0.2808 -0.65665,0.4061 l -0.0658,0.039 0.0658,0.01 c 4.28164,1.1751 8.51992,1.131 9.33385,-1.5408 1.05276,-3.4486 -5.75736,-7.1482 -8.97301,-8.9113 -0.68789,-0.3774 -0.98626,-0.1418 -0.54678,0.3631 2.02912,2.337 4.91993,6.9347 0.84259,9.6363" />
    <path
       inkscape:connector-curvature="0"
       id="path3146"
       style="fill:#231f20;fill-opacity:1;fill-rule:nonzero;stroke:none;display:inline"
       d="m 170.90753,1020.8431 -3.60846,0 0,-3.0221 3.60846,0 0,-4.4792 3.49711,0 0,4.4792 5.75332,0 0,3.0221 -5.75332,0 0,9.0954 c 0,2.2757 0.63498,3.468 3.54819,3.468 1.11525,0 2.36829,-0.3193 2.36829,-0.3193 l 0,3.1488 c -1.21667,0.1646 -2.0982,0.262 -3.47765,0.262 -5.50933,0 -5.93594,-3.9716 -5.93594,-6.1488 l 0,-9.5061" />
    <path
       inkscape:connector-curvature="0"
       id="path3148"
       style="fill:#231f20;fill-opacity:1;fill-rule:nonzero;stroke:none;display:inline"
       d="m 217.36365,1036.5417 3.58057,0 0,-18.7384 -3.58057,0 0,18.7384 z" />
    <path
       inkscape:connector-curvature="0"
       id="path3150"
       style="fill:#231f20;fill-opacity:1;fill-rule:nonzero;stroke:none;display:inline"
       d="m 223.62957,1026.9969 c 0,-7.0465 5.69784,-9.44 9.65428,-9.44 4.49477,0 6.6738,2.5773 6.6738,2.5773 l 0.18483,-2.3297 3.2715,0 0,18.7739 -3.27627,0 -0.18006,-2.4807 c 0,0 -2.2415,2.4851 -6.71313,2.4851 -4.48668,0 -9.61495,-2.6079 -9.61495,-9.5859 z m 3.64263,0.037 c 0,5.1036 4.20485,6.3761 6.19611,6.3761 3.80578,0 6.48934,-2.1496 6.48934,-6.4496 0,-4.3001 -3.05101,-6.2689 -6.52462,-6.2689 -1.96921,0 -6.16083,1.1576 -6.16083,6.3424" />
    <path
       inkscape:connector-curvature="0"
       id="path3152"
       style="fill:#231f20;fill-opacity:1;fill-rule:nonzero;stroke:none;display:inline"
       d="m 221.49756,1013.4777 c 0,-1.2931 -1.04835,-2.3422 -2.34218,-2.3422 -1.29383,0 -2.34366,1.0491 -2.34366,2.3422 0,1.2946 1.04983,2.3429 2.34366,2.3429 1.29383,0 2.34218,-1.0483 2.34218,-2.3429" />
    <path
       inkscape:connector-curvature="0"
       id="path3154"
       style="fill:#231f20;fill-opacity:1;fill-rule:nonzero;stroke:none;display:inline"
       d="m 214.7477,1021.0249 0,-3.1729 c -3.53606,-0.3235 -6.01937,0.5239 -7.95331,2.5453 l -0.18593,-2.5843 -3.39753,0 0,18.7533 3.58346,0 0,-9.7171 c 0,-2.7112 2.18492,-6.148 7.95331,-5.8243" />
    <path
       inkscape:connector-curvature="0"
       id="path3156"
       style="fill:#231f20;fill-opacity:1;fill-rule:nonzero;stroke:none;display:inline"
       d="m 196.90017,1025.4598 c 0,-2.5476 -2.56487,-4.6712 -5.714,-4.6712 -3.37329,0 -6.1623,2.0807 -6.38756,4.6712 l 12.10156,0 z m -15.88088,1.608 c 0,-5.8614 4.33088,-9.6245 10.11727,-9.6245 5.74597,0 9.6969,4.2001 9.6969,9.3012 0,0 0,0.7962 -0.0761,1.5198 l -16.01354,0.068 c 0.15397,2.8945 3.49491,5.0764 6.94279,5.0764 3.71355,0 5.91463,-2.2984 5.91463,-2.2984 l 2.56268,2.2532 c -2.60089,2.4973 -5.43658,3.2572 -8.4762,3.2572 -6.31407,0 -10.66847,-3.6915 -10.66847,-9.4078 l 0,-0.1451" />
    <path
       inkscape:connector-curvature="0"
       id="path3158"
       style="fill:#231f20;fill-opacity:1;fill-rule:nonzero;stroke:none;display:inline"
       d="m 159.63202,1025.3801 c -3.60515,-0.6441 -7.1504,-1.0939 -7.1504,-2.7751 0,-1.0954 1.08731,-2.0589 4.24269,-2.0589 2.34623,0 5.05221,0.5431 5.78456,2.2048 l 3.32477,-1.3963 c -1.27141,-2.5539 -5.03383,-3.7838 -9.35773,-3.7838 -3.78117,0 -7.83645,1.4305 -7.83645,5.2569 0,3.3144 3.01611,4.3445 7.98968,5.2804 3.32294,0.6251 6.38682,0.9418 6.38682,2.7336 0,1.1299 -1.50769,2.5792 -5.27526,2.5792 -2.67951,0 -5.38108,-0.5619 -6.20713,-2.4679 l -3.22372,1.3522 c 1.32249,2.9456 4.82952,4.4698 8.89326,4.4698 8.11462,0 9.68257,-3.862 9.68257,-6.0528 0,-3.6492 -3.63087,-4.6951 -7.25366,-5.3421" />
    <path
       inkscape:connector-curvature="0"
       id="path3160"
       style="fill:#231f20;fill-opacity:1;fill-rule:nonzero;stroke:none;display:inline"
       d="m 56.608014,1036.5828 c -4.488157,0 -6.711657,-2.8529 -6.711657,-2.8529 l 0,7.8968 -3.45779,0 0,-23.8222 3.27112,0 0.18667,2.3297 c 0,0 2.177565,-2.5766 6.672704,-2.5766 3.954972,0 9.652069,2.0166 9.652069,9.4393 0,7.4219 -5.125328,9.5859 -9.613116,9.5859 z m -0.187408,-15.8912 c -3.473228,0 -6.524249,1.9692 -6.524249,6.2689 0,4.3001 2.683195,6.4497 6.48714,6.4497 1.992371,0 6.19758,-0.8084 6.19758,-6.3762 0,-5.5677 -4.192354,-6.3424 -6.160471,-6.3424" />
    <path
       inkscape:connector-curvature="0"
       id="path3162"
       style="fill:#231f20;fill-opacity:1;fill-rule:nonzero;stroke:none;display:inline"
       d="m 79.695893,1026.9969 c 0,-7.0465 5.695621,-9.44 9.653536,-9.44 4.494031,0 6.67013,2.5773 6.67013,2.5773 l 0.185563,-2.3297 3.273703,0 0,18.7739 -3.264877,0 -0.194389,-2.4807 c 0,0 -2.239297,2.4851 -6.710181,2.4851 -4.487788,0 -9.613485,-2.6079 -9.613485,-9.5859 z m 3.639684,0.037 c 0,5.1036 4.205209,6.3761 6.198687,6.3761 3.803945,0 6.485295,-2.1496 6.485295,-6.4496 0,-4.3001 -3.048079,-6.2689 -6.521676,-6.2689 -1.969224,0 -6.162306,1.1576 -6.162306,6.3424" />
    <path
       inkscape:connector-curvature="0"
       id="path3164"
       style="fill:#231f20;fill-opacity:1;fill-rule:nonzero;stroke:none;display:inline"
       d="m 79.957888,1021.0249 0,-3.1729 c -3.537173,-0.3235 -6.021571,0.5239 -7.954773,2.5453 l -0.186671,-2.5843 -3.397534,0 0,18.7533 3.584205,0 0,-9.7171 c 0,-2.7112 2.184915,-6.148 7.954773,-5.8243" />
    <path
       inkscape:connector-curvature="0"
       id="path3166"
       style="fill:#231f20;fill-opacity:1;fill-rule:nonzero;stroke:none;display:inline"
       d="m 14.910864,1025.3801 c -3.605696,-0.6441 -7.1496712,-1.0939 -7.1496712,-2.7751 0,-1.0954 1.0871321,-2.0589 4.2425882,-2.0589 2.344978,0 5.050701,0.5431 5.784478,2.2048 l 3.325621,-1.3963 c -1.273464,-2.5539 -5.036032,-3.7838 -9.358282,-3.7838 -3.7801003,0 -7.8386901,1.4305 -7.8386901,5.2569 0,3.3144 3.0170633,4.3445 7.9918521,5.2804 3.321462,0.6251 6.386744,0.9418 6.386744,2.7336 0,1.1299 -1.508173,2.5792 -5.275916,2.5792 -2.678708,0 -5.3818581,-0.5619 -6.2076138,-2.4679 l -3.2213356,1.3522 c 1.3197271,2.9456 4.8276503,4.4698 8.8912464,4.4698 8.113111,0 9.683155,-3.862 9.683155,-6.0528 0,-3.6492 -3.631536,-4.6951 -7.254176,-5.3421" />
    <path
       inkscape:connector-curvature="0"
       id="path3168"
       style="fill:#231f20;fill-opacity:1;fill-rule:nonzero;stroke:none;display:inline"
       d="m 34.061033,1033.4102 c -2.944451,0 -6.822992,-1.2725 -6.822992,-6.3762 0,-5.1848 4.301486,-6.2384 6.822992,-6.2384 2.521153,0 6.822639,1.0536 6.822639,6.2384 0,5.1037 -3.878172,6.3762 -6.822639,6.3762 z m 0,-15.8533 c -4.792037,0 -10.462317,2.3935 -10.462317,9.44 0,6.978 5.102181,9.6899 10.462317,9.6899 5.360511,0 10.463799,-2.7119 10.463799,-9.6899 0,-7.0465 -5.672115,-9.44 -10.463799,-9.44" />
    <path
       inkscape:connector-curvature="0"
       id="path3170"
       style="fill:#db1d2b;fill-opacity:1;fill-rule:nonzero;stroke:none;display:inline"
       d="m 133.28221,1036.409 c 0,0 -5.39138,3.3884 -14.90381,3.3884 -3.68562,0 -6.78808,-0.5648 -8.10176,-1.8553 -1.38128,-1.3593 -2.13053,-3.6504 -2.13053,-5.7559 0,-1.8042 0.74925,-3.3215 2.31133,-3.3215 4.01045,0 16.50593,6.3552 22.82477,7.5443" />
    <path
       inkscape:connector-curvature="0"
       id="path3172"
       style="fill:#f47216;fill-opacity:1;fill-rule:nonzero;stroke:none;display:inline"
       d="m 115.31746,1016.7631 c 0.19806,-0.1308 0.43617,-0.28 0.65555,-0.406 l 0.0672,-0.039 -0.0672,-0.01 c -4.28164,-1.1756 -8.51993,-1.1311 -9.33312,1.5396 -1.05241,3.4486 5.75664,7.1482 8.97191,8.9116 0.68899,0.3774 0.98662,0.1415 0.54788,-0.3638 -2.02949,-2.3363 -4.91993,-6.9346 -0.84222,-9.6352" />
    <path
       inkscape:connector-curvature="0"
       id="path3174"
       style="fill:#db1d2b;fill-opacity:1;fill-rule:nonzero;stroke:none;display:inline"
       d="m 116.03548,1016.3203 c 0,0 5.39063,-3.3879 14.9038,-3.3879 3.68563,0 6.78809,0.5645 8.10029,1.8553 1.38202,1.3592 2.132,3.6489 2.132,5.7548 0,1.8042 -0.74998,3.3211 -2.31169,3.3211 -4.01119,0 -16.50519,-6.3545 -22.8244,-7.5433" />
  </g>
</svg>
