<?xml version="1.0" encoding="UTF-8" standalone="no"?>
<!-- Created with Inkscape (http://www.inkscape.org/) -->

<svg
   xmlns:dc="http://purl.org/dc/elements/1.1/"
   xmlns:cc="http://creativecommons.org/ns#"
   xmlns:rdf="http://www.w3.org/1999/02/22-rdf-syntax-ns#"
   xmlns:svg="http://www.w3.org/2000/svg"
   xmlns="http://www.w3.org/2000/svg"
   xmlns:sodipodi="http://sodipodi.sourceforge.net/DTD/sodipodi-0.dtd"
   xmlns:inkscape="http://www.inkscape.org/namespaces/inkscape"
   width="246.83333"
   height="53"
   id="svg3359"
   version="1.1"
   inkscape:version="0.48.4 r9939"
   sodipodi:docname="soprasteria.svg">
  <defs
     id="defs3361" />
  <sodipodi:namedview
     id="base"
     pagecolor="#888888"
     bordercolor="#666666"
     borderopacity="1.0"
     inkscape:pageopacity="1"
     inkscape:pageshadow="2"
     inkscape:zoom="4.3199999"
     inkscape:cx="151.29023"
     inkscape:cy="8.8053045"
     inkscape:document-units="px"
     inkscape:current-layer="layer1"
     showgrid="true"
     inkscape:window-width="1600"
     inkscape:window-height="876"
     inkscape:window-x="0"
     inkscape:window-y="24"
     inkscape:window-maximized="1"
     showguides="false"
     inkscape:snap-page="true"
     fit-margin-top="0"
     fit-margin-left="0"
     fit-margin-right="2"
     fit-margin-bottom="0">
    <inkscape:grid
       type="xygrid"
       id="grid3788"
       empspacing="5"
       visible="true"
       enabled="true"
       snapvisiblegridlinesonly="true" />
  </sodipodi:namedview>
  <metadata
     id="metadata3364">
    <rdf:RDF>
      <cc:Work
         rdf:about="">
        <dc:format>image/svg+xml</dc:format>
        <dc:type
           rdf:resource="http://purl.org/dc/dcmitype/StillImage" />
        <dc:title />
      </cc:Work>
    </rdf:RDF>
  </metadata>
  <g
     inkscape:label="Layer 1"
     inkscape:groupmode="layer"
     id="layer1"
     transform="translate(-1.085648,-989.3823)">
    <path
       inkscape:connector-curvature="0"
       id="path3144"
       style="fill:#f47216;fill-opacity:1;fill-rule:nonzero;stroke:none;display:inline"
       d="m 134.17532,1023.1635 c -0.20174,0.1335 -0.44497,0.2855 -0.66762,0.4129 l -0.0669,0.04 0.0669,0.011 c 4.3532,1.1948 8.66232,1.1499 9.48985,-1.5664 1.07035,-3.5063 -5.85359,-7.2678 -9.12298,-9.0605 -0.6994,-0.3836 -1.00275,-0.1441 -0.55592,0.3693 2.06303,2.376 5.00216,7.0506 0.85667,9.7973" />
    <path
       inkscape:connector-curvature="0"
       id="path3146"
       style="fill:#231f20;fill-opacity:1;fill-rule:nonzero;stroke:#ffffff;stroke-width:1.00150788;stroke-opacity:1;display:inline"
       d="m 171.69987,1007.7876 -3.66876,0 0,-3.0726 3.66876,0 0,-4.554 3.55557,0 0,4.554 5.84948,0 0,3.0726 -5.84948,0 0,9.2474 c 0,2.3138 0.64559,3.526 3.60749,3.526 1.13389,0 2.40788,-0.3247 2.40788,-0.3247 l 0,3.2015 c -1.23702,0.1673 -2.13327,0.2664 -3.53578,0.2664 -5.60142,0 -6.03516,-4.038 -6.03516,-6.2516 l 0,-9.665" />
    <path
       inkscape:connector-curvature="0"
       id="path3148"
       style="fill:#231f20;fill-opacity:1;fill-rule:nonzero;stroke:#ffffff;stroke-width:1.00150788;stroke-opacity:1;display:inline"
       d="m 218.93247,1023.7486 3.64042,0 0,-19.0515 -3.64042,0 0,19.0515 z" />
    <path
       inkscape:connector-curvature="0"
       id="path3150"
       style="fill:#231f20;fill-opacity:1;fill-rule:nonzero;stroke:#ffffff;stroke-width:1.00150788;stroke-opacity:1;display:inline"
       d="m 225.30313,1014.0442 c 0,-7.1641 5.79306,-9.5977 9.81564,-9.5977 4.5699,0 6.78535,2.6204 6.78535,2.6204 l 0.18792,-2.3686 3.32618,0 0,19.0876 -3.33104,0 -0.18306,-2.5221 c 0,0 -2.27896,2.5266 -6.82534,2.5266 -4.56167,0 -9.77565,-2.6514 -9.77565,-9.7462 z m 3.70351,0.038 c 0,5.1889 4.27513,6.4827 6.29968,6.4827 3.86938,0 6.5978,-2.1855 6.5978,-6.5573 0,-4.372 -3.10201,-6.3738 -6.63368,-6.3738 -2.00212,0 -6.2638,1.177 -6.2638,6.4484" />
    <path
       inkscape:connector-curvature="0"
       id="path3152"
       style="fill:#231f20;fill-opacity:1;fill-rule:nonzero;stroke:#ffffff;stroke-width:1.00150788;stroke-opacity:1;display:inline"
       d="m 223.13548,1000.2992 c 0,-1.31481 -1.06587,-2.38141 -2.38132,-2.38141 -1.31547,0 -2.38284,1.0666 -2.38284,2.38141 0,1.3162 1.06737,2.382 2.38284,2.382 1.31545,0 2.38132,-1.0658 2.38132,-2.382" />
    <path
       inkscape:connector-curvature="0"
       id="path3154"
       style="fill:#231f20;fill-opacity:1;fill-rule:nonzero;stroke:#ffffff;stroke-width:1.00150788;stroke-opacity:1;display:inline"
       d="m 216.27279,1007.9725 0,-3.2259 c -3.59516,-0.3289 -6.11997,0.5326 -8.08624,2.5877 l -0.18903,-2.6274 -3.45432,0 0,19.0666 3.64335,0 0,-9.8794 c 0,-2.7566 2.22145,-6.2507 8.08624,-5.9216" />
    <path
       inkscape:connector-curvature="0"
       id="path3156"
       style="fill:#231f20;fill-opacity:1;fill-rule:nonzero;stroke:#ffffff;stroke-width:1.00150788;stroke-opacity:1;display:inline"
       d="m 198.12697,1012.4815 c 0,-2.5902 -2.60775,-4.7493 -5.80951,-4.7493 -3.42967,0 -6.26531,2.1155 -6.49433,4.7493 l 12.30384,0 z m -16.14632,1.6348 c 0,-5.9593 4.40327,-9.7853 10.28636,-9.7853 5.84202,0 9.85898,4.2704 9.85898,9.4566 0,0 0,0.8096 -0.0774,1.5453 l -16.28119,0.069 c 0.15654,2.9429 3.55334,5.1613 7.05884,5.1613 3.77562,0 6.01348,-2.3369 6.01348,-2.3369 l 2.60552,2.2909 c -2.64436,2.5391 -5.52746,3.3116 -8.61787,3.3116 -6.41961,0 -10.84679,-3.7532 -10.84679,-9.5651 l 0,-0.1475" />
    <path
       inkscape:connector-curvature="0"
       id="path3158"
       style="fill:#231f20;fill-opacity:1;fill-rule:nonzero;stroke:#ffffff;stroke-width:1.00150788;stroke-opacity:1;display:inline"
       d="m 160.2359,1012.4005 c -3.6654,-0.6549 -7.2699,-1.1122 -7.2699,-2.8215 0,-1.1138 1.10548,-2.0933 4.31359,-2.0933 2.38545,0 5.13666,0.5522 5.88125,2.2417 l 3.38034,-1.4197 c -1.29267,-2.5966 -5.11797,-3.8471 -9.51415,-3.8471 -3.84436,0 -7.96742,1.4544 -7.96742,5.3447 0,3.3699 3.06651,4.4172 8.12322,5.3688 3.37847,0.6355 6.49358,0.9575 6.49358,2.7792 0,1.1489 -1.5329,2.6224 -5.36344,2.6224 -2.7243,0 -5.47103,-0.5712 -6.31088,-2.5092 l -3.2776,1.3747 c 1.3446,2.9949 4.91024,4.5446 9.0419,4.5446 8.25025,0 9.84441,-3.9265 9.84441,-6.154 0,-3.7101 -3.69156,-4.7735 -7.3749,-5.4313" />
    <path
       inkscape:connector-curvature="0"
       id="path3160"
       style="fill:#231f20;fill-opacity:1;fill-rule:nonzero;stroke:#ffffff;stroke-width:1.00150788;stroke-opacity:1;display:inline"
       d="m 55.489925,1023.7904 c -4.563173,0 -6.823838,-2.9005 -6.823838,-2.9005 l 0,8.0287 -3.515584,0 0,-24.2203 3.325794,0 0.18979,2.3686 c 0,0 2.213962,-2.6197 6.784233,-2.6197 4.021078,0 9.813397,2.0502 9.813397,9.597 0,7.546 -5.210994,9.7462 -9.773792,9.7462 z m -0.190541,-16.1568 c -3.53128,0 -6.633297,2.0022 -6.633297,6.3737 0,4.3719 2.728043,6.5574 6.595568,6.5574 2.025672,0 6.301168,-0.8218 6.301168,-6.4827 0,-5.6607 -4.262426,-6.4484 -6.263439,-6.4484" />
    <path
       inkscape:connector-curvature="0"
       id="path3162"
       style="fill:#231f20;fill-opacity:1;fill-rule:nonzero;stroke:#ffffff;stroke-width:1.00150788;stroke-opacity:1;display:inline"
       d="m 78.963701,1014.0442 c 0,-7.1641 5.79082,-9.5977 9.814889,-9.5977 4.56915,0 6.781621,2.6204 6.781621,2.6204 l 0.188663,-2.3686 3.328412,0 0,19.0876 -3.319438,0 -0.197637,-2.5221 c 0,0 -2.276729,2.5266 -6.822342,2.5266 -4.562801,0 -9.774168,-2.6514 -9.774168,-9.7462 z m 3.700523,0.038 c 0,5.1889 4.275487,6.4827 6.302288,6.4827 3.867524,0 6.593699,-2.1855 6.593699,-6.5573 0,-4.372 -3.099027,-6.3738 -6.630684,-6.3738 -2.002145,0 -6.265303,1.177 -6.265303,6.4484" />
    <path
       inkscape:connector-curvature="0"
       id="path3164"
       style="fill:#231f20;fill-opacity:1;fill-rule:nonzero;stroke:#ffffff;stroke-width:1.00150788;stroke-opacity:1;display:inline"
       d="m 79.230076,1007.9725 0,-3.2259 c -3.596295,-0.3289 -6.122218,0.5326 -8.087733,2.5877 l -0.189791,-2.6274 -3.454321,0 0,19.0666 3.644112,0 0,-9.8794 c 0,-2.7566 2.221435,-6.2507 8.087733,-5.9216" />
    <path
       inkscape:connector-curvature="0"
       id="path3166"
       style="fill:#ffffff;fill-opacity:1;fill-rule:nonzero;stroke:#ffffff;stroke-width:1.00150788;stroke-opacity:1;display:inline"
       d="m 13.095837,1012.4005 c -3.6659632,-0.6549 -7.2691722,-1.1122 -7.2691722,-2.8215 0,-1.1138 1.1053032,-2.0933 4.3135002,-2.0933 2.384173,0 5.13512,0.5522 5.881161,2.2417 l 3.381207,-1.4197 c -1.29475,-2.5966 -5.120207,-3.8471 -9.5147001,-3.8471 -3.8432816,0 -7.9697074,1.4544 -7.9697074,5.3447 0,3.3699 3.0674906,4.4172 8.1254295,5.3688 3.376978,0.6355 6.493494,0.9575 6.493494,2.7792 0,1.1489 -1.533381,2.6224 -5.364099,2.6224 -2.7234805,0 -5.4718117,-0.5712 -6.3113695,-2.5092 l -3.2751786,1.3747 c 1.341786,2.9949 4.9083408,4.5446 9.0398571,4.5446 8.248716,0 9.845002,-3.9265 9.845002,-6.154 0,-3.7101 -3.692234,-4.7735 -7.375424,-5.4313" />
    <path
       inkscape:connector-curvature="0"
       id="path3168"
       style="fill:#231f20;fill-opacity:1;fill-rule:nonzero;stroke:#ffffff;stroke-width:1.00150788;stroke-opacity:1;display:inline"
       d="m 32.566087,1020.5647 c -2.993664,0 -6.937033,-1.2937 -6.937033,-6.4827 0,-5.2714 4.373383,-6.3427 6.937033,-6.3427 2.563293,0 6.936674,1.0713 6.936674,6.3427 0,5.189 -3.942992,6.4827 -6.936674,6.4827 z m 0,-16.1182 c -4.872132,0 -10.637187,2.4336 -10.637187,9.5977 0,7.0948 5.187461,9.852 10.637187,9.852 5.450109,0 10.638695,-2.7572 10.638695,-9.852 0,-7.1641 -5.766921,-9.5977 -10.638695,-9.5977" />
    <path
       inkscape:connector-curvature="0"
       id="path3170"
       style="fill:#db1d2b;fill-opacity:1;fill-rule:nonzero;stroke:none;display:inline"
       d="m 133.44567,1023.6137 c 0,0 -5.48149,3.4451 -15.15292,3.4451 -3.74721,0 -6.90154,-0.5743 -8.23716,-1.8864 -1.40437,-1.382 -2.16615,-3.7114 -2.16615,-5.8522 0,-1.8343 0.76178,-3.3769 2.34996,-3.3769 4.07749,0 16.78182,6.4615 23.20627,7.6704" />
    <path
       inkscape:connector-curvature="0"
       id="path3172"
       style="fill:#f47216;fill-opacity:1;fill-rule:nonzero;stroke:none;display:inline"
       d="m 115.18066,1003.6395 c 0.20137,-0.133 0.44346,-0.2847 0.66651,-0.4128 l 0.0683,-0.04 -0.0683,-0.011 c -4.35321,-1.1953 -8.66233,-1.15 -9.48912,1.5652 -1.07,3.5063 5.85286,7.2677 9.12186,9.0605 0.70052,0.3838 1.00312,0.144 0.55704,-0.3698 -2.06341,-2.3754 -5.00216,-7.0505 -0.85629,-9.7962" />
    <path
       inkscape:connector-curvature="0"
       id="path3174"
       style="fill:#db1d2b;fill-opacity:1;fill-rule:nonzero;stroke:none;display:inline"
       d="m 115.91069,1003.1892 c 0,0 5.48072,-3.44441 15.1529,-3.44441 3.74722,0 6.90155,0.57381 8.23567,1.88631 1.40512,1.3818 2.16764,3.7098 2.16764,5.8508 0,1.8344 -0.76252,3.3767 -2.35033,3.3767 -4.07823,0 -16.78105,-6.4607 -23.20588,-7.6694" />
    <path
       style="fill:#ffffff;stroke:#ffffff;stroke-width:1.00150788;stroke-opacity:1"
       d="m 29.490207,1023.4354 c -1.768276,-0.4282 -4.11845,-1.6921 -5.036971,-2.7088 -3.144158,-3.4802 -3.181483,-9.8866 -0.07569,-12.9923 2.126061,-2.126 4.550131,-3.0429 8.073779,-3.0538 3.376875,-0.011 5.518065,0.6847 7.754177,2.517 3.583089,2.936 3.819256,9.8282 0.464034,13.5422 -0.93551,1.0354 -3.602853,2.4105 -5.389697,2.7783 -1.59679,0.3287 -4.247356,0.2909 -5.789625,-0.083 z m 4.553964,-2.9214 c 3.66208,-0.5943 5.427328,-2.6515 5.46078,-6.3641 0.01421,-1.5759 -0.07943,-2.0505 -0.623039,-3.1578 -1.073752,-2.1873 -3.156649,-3.2639 -6.314678,-3.2639 -3.158032,0 -5.240929,1.0766 -6.314681,3.2639 -0.543604,1.1073 -0.637238,1.5819 -0.623038,3.1578 0.03676,4.0789 2.067608,6.0712 6.705887,6.5783 0.127507,0.014 0.896453,-0.083 1.708769,-0.2142 l 0,0 z"
       id="path2998"
       inkscape:connector-curvature="0" />
    <path
       style="fill:#ffffff;stroke:#ffffff;stroke-width:1.00150788;stroke-opacity:1"
       d="m 45.201998,1016.8159 0,-12.0551 1.622813,0 1.622814,0 0,1.1591 c 0,0.6376 0.05945,1.1592 0.132103,1.1592 0.07266,0 0.610541,-0.3292 1.195301,-0.7315 2.465303,-1.6962 5.43114,-2.1792 8.474563,-1.3803 3.149096,0.8269 5.312041,2.6871 6.330858,5.4449 0.518142,1.4025 0.609313,5.4811 0.1561,6.9834 -0.760171,2.5197 -2.912754,4.8125 -5.250011,5.5919 -3.628991,1.2102 -7.384354,0.6632 -9.832258,-1.4321 -0.512938,-0.4391 -0.994275,-0.7983 -1.069636,-0.7983 -0.07537,0 -0.13702,1.8256 -0.13702,4.057 l 0,4.0571 -1.622814,0 -1.622813,0 0,-12.0553 z m 13.042153,3.192 c 2.743708,-1.1654 4.007789,-4.4633 3.089609,-8.0608 -0.464935,-1.8216 -1.262347,-2.8682 -2.80302,-3.6791 -1.001193,-0.527 -1.439614,-0.6093 -3.244115,-0.6093 -1.826159,0 -2.254893,0.083 -3.43638,0.6628 -2.267623,1.1135 -3.235732,2.9269 -3.209422,6.0119 0.01445,1.6942 0.673137,3.5047 1.641186,4.5109 1.720251,1.7882 5.269966,2.3069 7.962142,1.1636 l 0,0 z"
       id="path3000"
       inkscape:connector-curvature="0" />
    <path
       style="fill:#ffffff;stroke:#ffffff;stroke-width:1.00150788;stroke-opacity:1"
       d="m 67.689558,1014.2659 0,-9.5051 1.622816,0 1.622813,0 0,1.275 c 0,0.7013 0.06839,1.2751 0.15199,1.2751 0.0836,0 0.502405,-0.2672 0.930692,-0.5939 1.442526,-1.1003 3.15761,-1.7262 5.151162,-1.8799 l 1.880225,-0.145 0,1.5245 0,1.5246 -1.333026,0.1533 c -3.233599,0.3718 -4.87683,1.324 -5.964422,3.4562 l -0.700706,1.3737 -0.07634,5.5232 -0.07634,5.5233 -1.604425,0 -1.604425,0 0,-9.505 z"
       id="path3002"
       inkscape:connector-curvature="0" />
    <path
       style="fill:#ffffff;stroke:#ffffff;stroke-width:1.00150788;stroke-opacity:1"
       d="m 87.229857,1023.525 c -4.676836,-0.6386 -7.65058,-3.7673 -8.091687,-8.5134 -0.362574,-3.9012 1.365301,-7.3767 4.49718,-9.046 3.622705,-1.9309 7.970874,-1.7651 10.85054,0.414 0.49908,0.3776 0.98566,0.6896 1.081291,0.6931 0.09563,0 0.173872,-0.5152 0.173872,-1.1528 l 0,-1.1591 1.622815,0 1.622816,0 0,9.5156 0,9.5157 -1.564861,-0.069 -1.564854,-0.069 -0.07008,-1.2171 c -0.03854,-0.6694 -0.124066,-1.2171 -0.19006,-1.2171 -0.06599,0 -0.590728,0.3239 -1.16608,0.7198 -1.959166,1.3479 -4.629564,1.9355 -7.200898,1.5845 l 0,0 z m 4.603144,-3.3763 c 1.141979,-0.3604 2.526237,-1.5342 3.086234,-2.617 0.918122,-1.7755 0.872754,-5.0576 -0.09616,-6.9568 -1.834547,-3.596 -8.30134,-4.0181 -10.936545,-0.7138 -1.306737,1.6385 -1.660788,4.9276 -0.761984,7.0788 1.296782,3.1035 4.869439,4.42 8.708455,3.2088 z"
       id="path3004"
       inkscape:connector-curvature="0" />
    <path
       style="fill:#ffffff;stroke:#ffffff;stroke-width:1.00150788;stroke-opacity:1"
       d="m 154.22046,1023.4127 c -0.66932,-0.1803 -1.64424,-0.5457 -2.1665,-0.8122 -1.07963,-0.5508 -2.99189,-2.3676 -2.99189,-2.8425 0,-0.1738 0.6388,-0.5916 1.41954,-0.9285 l 1.41954,-0.6125 0.45703,0.581 c 1.43057,1.8187 6.69796,2.4597 9.74624,1.1861 1.73678,-0.7257 2.10494,-2.6468 0.66748,-3.4832 -0.42877,-0.2495 -2.61956,-0.848 -4.86845,-1.3299 -2.24886,-0.482 -4.5583,-1.0433 -5.13208,-1.2475 -2.44921,-0.8714 -3.48693,-2.1328 -3.46633,-4.2134 0.0295,-2.975 2.54933,-4.7931 7.0597,-5.0933 2.28046,-0.1517 5.14962,0.3314 7.00653,1.1799 1.32932,0.6074 2.84952,1.8444 2.84273,2.3132 -0.002,0.1343 -0.65888,0.511 -1.45986,0.8369 l -1.45632,0.5927 -0.63809,-0.6475 c -0.90305,-0.9163 -2.84208,-1.4258 -5.39899,-1.4188 -2.44169,0.011 -3.71413,0.4686 -4.21815,1.5309 -0.26591,0.5604 -0.25545,0.7305 0.076,1.2365 0.5466,0.8342 1.5093,1.1683 6.0004,2.0832 6.5788,1.3401 8.26688,2.4827 8.25263,5.586 -0.0125,2.7154 -1.98912,4.6573 -5.60951,5.5109 -1.83122,0.4318 -5.92466,0.4274 -7.54163,-0.011 l 0,0 z"
       id="path3006"
       inkscape:connector-curvature="0" />
    <path
       style="fill:#ffffff;stroke:#ffffff;stroke-width:1.00150788;stroke-opacity:1"
       d="m 175.14991,1023.1694 c -1.20208,-0.44 -2.1526,-1.3512 -2.75829,-2.6441 -0.44848,-0.9573 -0.49541,-1.5254 -0.5699,-6.897 l -0.0812,-5.8537 -1.83418,0 -1.83417,0 0,-1.5069 0,-1.5069 1.85464,0 1.85463,0 0,-2.2024 0,-2.2024 1.73874,0 1.73872,0 0,2.2024 0,2.2024 2.89788,0 2.8979,0 0,1.5069 0,1.5069 -2.8979,0 -2.89788,0 0,5.4371 c 0,3.4156 0.0936,5.6424 0.25159,5.9893 0.46305,1.0162 1.49614,1.4102 3.62181,1.3811 l 1.92238,-0.026 0,1.3486 c 0,1.2027 -0.0565,1.3639 -0.52163,1.4885 -0.97614,0.2617 -4.45231,0.1173 -5.38316,-0.2235 z"
       id="path3008"
       inkscape:connector-curvature="0" />
    <path
       style="fill:#ffffff;stroke:#ffffff;stroke-width:1.00150788;stroke-opacity:1"
       d="m 191.48707,1023.6351 c -4.34564,-0.7245 -6.2195,-1.7937 -8.03345,-4.5836 -0.86568,-1.3313 -1.24685,-2.8298 -1.24685,-4.9016 0,-5.7465 4.01229,-9.6088 9.99167,-9.6182 5.40698,-0.011 9.40876,3.6047 9.6782,8.7383 l 0.10093,1.9232 -8.14314,0 c -9.04406,0 -8.48642,-0.1133 -7.78365,1.5722 1.68016,4.0284 7.93752,5.1057 12.20315,2.101 l 0.62339,-0.439 1.16359,1.0334 1.16362,1.0335 -0.80815,0.7096 c -1.01796,0.8938 -2.1963,1.4977 -3.81604,1.9557 -1.33915,0.3788 -4.11793,0.6382 -5.09328,0.4755 z m 6.64679,-11.836 c -0.69421,-4.2781 -7.6335,-5.6253 -10.98186,-2.1322 -0.68405,0.7136 -1.46069,2.1688 -1.46069,2.7369 0,0.1586 2.12065,0.2392 6.28975,0.2392 l 6.28975,0 -0.13695,-0.8439 0,0 z"
       id="path3010"
       inkscape:connector-curvature="0" />
    <path
       style="fill:#ffffff;stroke:#ffffff;stroke-width:1.00150788;stroke-opacity:1"
       d="m 204.70141,1014.2659 0,-9.5051 1.6228,0 1.62282,0 0,1.1454 c 0,1.3979 0.30667,1.6377 1.12004,0.876 1.26836,-1.1879 3.72711,-2.0214 5.9622,-2.0214 l 1.03182,0 0,1.4765 0,1.4766 -0.86935,0.1437 c -0.47816,0.079 -1.10018,0.1449 -1.3823,0.1462 -0.97716,0 -3.02451,0.9447 -3.89079,1.786 -1.63855,1.5914 -1.72896,2.0269 -1.7347,8.3592 l -0.005,5.6219 -1.73872,0 -1.73872,0 0,-9.505 z"
       id="path3012"
       inkscape:connector-curvature="0" />
    <path
       style="fill:#ffffff;stroke:#ffffff;stroke-width:1.00150788;stroke-opacity:1"
       d="m 219.07489,1014.1499 0,-9.3891 1.73873,0 1.73874,0 0,9.3891 0,9.3891 -1.73874,0 -1.73873,0 0,-9.3891 z"
       id="path3014"
       inkscape:connector-curvature="0" />
    <path
       style="fill:#ffffff;stroke:#ffffff;stroke-width:1.00150788;stroke-opacity:1"
       d="m 219.22243,1001.8313 c -1.27086,-1.2709 -0.51946,-3.42601 1.29525,-3.71481 0.77004,-0.1226 0.95463,-0.046 1.71011,0.7094 0.75548,0.7555 0.83206,0.9402 0.70947,1.71011 -0.28889,1.8148 -2.44397,2.5662 -3.71483,1.2953 l 0,0 z"
       id="path3016"
       inkscape:connector-curvature="0" />
    <path
       style="fill:#ffffff;stroke:#ffffff;stroke-width:1.00150788;stroke-opacity:1"
       d="m 233.45991,1023.5122 c -2.98345,-0.3731 -5.95977,-2.4502 -7.11386,-4.9643 -0.29439,-0.6413 -0.64204,-1.9191 -0.77259,-2.8396 -0.46771,-3.2977 0.43374,-6.3358 2.45446,-8.272 3.5384,-3.3904 9.16275,-3.7843 12.99746,-0.9103 0.93182,0.6983 1.00005,0.6927 1.0039,-0.085 0.008,-1.5416 0.15362,-1.6807 1.76261,-1.6807 l 1.47985,0 0,9.505 0,9.5051 -1.47985,0 c -1.62975,0 -1.75559,-0.1284 -1.76261,-1.7968 -0.002,-0.4144 -0.0448,-0.7534 -0.0957,-0.7534 -0.051,0 -0.63554,0.3653 -1.29914,0.8119 -1.94745,1.3105 -4.43076,1.8227 -7.17444,1.4795 l 0,0 z m 4.41549,-3.2393 c 1.39111,-0.3503 2.64299,-1.4339 3.37196,-2.9184 0.57702,-1.1751 0.66101,-1.6051 0.64859,-3.3205 -0.0212,-2.9375 -1.03888,-4.7408 -3.26594,-5.7876 -3.35338,-1.5763 -7.5418,-0.3572 -8.9979,2.6189 -1.1058,2.2602 -0.81925,5.698 0.62052,7.4448 1.71828,2.0845 4.39893,2.7748 7.62277,1.9628 l 0,0 z"
       id="path3018"
       inkscape:connector-curvature="0" />
  </g>
</svg>
