<?xml version="1.0" encoding="UTF-8" standalone="no"?>
<!-- Created with Inkscape (http://www.inkscape.org/) -->

<svg
   xmlns:dc="http://purl.org/dc/elements/1.1/"
   xmlns:cc="http://creativecommons.org/ns#"
   xmlns:rdf="http://www.w3.org/1999/02/22-rdf-syntax-ns#"
   xmlns:svg="http://www.w3.org/2000/svg"
   xmlns="http://www.w3.org/2000/svg"
   version="1.1"
   width="100%"
   height="100%"
   viewBox="0 0 857 180"
   id="svg3359">
  <defs
     id="defs34" />
  <metadata
     id="metadata3364">
    <rdf:RDF>
      <cc:Work
         rdf:about="">
        <dc:format>image/svg+xml</dc:format>
        <dc:type
           rdf:resource="http://purl.org/dc/dcmitype/StillImage" />
        <dc:title></dc:title>
      </cc:Work>
    </rdf:RDF>
  </metadata>
  <g
     transform="matrix(3.5002861,0,0,3.5002861,-5.3854789,-3462.267)"
     id="layer1">
    <path
       d="m 134.64,1031 c -0.20174,0.1335 -0.44497,0.2855 -0.66762,0.4129 l -0.0669,0.04 0.0669,0.011 c 4.3532,1.1948 8.6623,1.1499 9.4898,-1.5664 1.0704,-3.5063 -5.8536,-7.2678 -9.123,-9.0605 -0.6994,-0.3836 -1.0028,-0.1441 -0.55592,0.3693 2.063,2.376 5.0022,7.0506 0.85667,9.7973"
       id="path3144"
       style="fill:#ffffff;fill-opacity:1;fill-rule:nonzero" />
    <path
       d="m 172.16,1015.7 -3.6688,0 0,-3.0726 3.6688,0 0,-4.554 3.5556,0 0,4.554 5.8495,0 0,3.0726 -5.8495,0 0,9.2474 c 0,2.3138 0.64559,3.526 3.6075,3.526 1.1339,0 2.4079,-0.3247 2.4079,-0.3247 v 3.2015 c -1.237,0.1673 -2.1333,0.2664 -3.5358,0.2664 -5.6014,0 -6.0352,-4.038 -6.0352,-6.2516 v -9.665"
       id="path3146"
       style="fill:#231f20;fill-rule:nonzero;stroke:#ffffff;stroke-width:1.00150788" />
    <path
       d="m 219.4,1031.6 3.6404,0 0,-19.052 -3.6404,0 0,19.052 z"
       id="path3148"
       style="fill:#231f20;fill-rule:nonzero;stroke:#ffffff;stroke-width:1.00150788" />
    <path
       d="m 225.77,1021.9 c 0,-7.1641 5.7931,-9.5977 9.8156,-9.5977 4.5699,0 6.7854,2.6204 6.7854,2.6204 l 0.18792,-2.3686 h 3.3262 v 19.088 h -3.331 l -0.18306,-2.5221 c 0,0 -2.279,2.5266 -6.8253,2.5266 -4.5617,0 -9.7756,-2.6514 -9.7756,-9.7462 z m 3.7035,0.038 c 0,5.1889 4.2751,6.4827 6.2997,6.4827 3.8694,0 6.5978,-2.1855 6.5978,-6.5573 0,-4.372 -3.102,-6.3738 -6.6337,-6.3738 -2.0021,0 -6.2638,1.177 -6.2638,6.4484"
       id="path3150"
       style="fill:#231f20;fill-rule:nonzero;stroke:#ffffff;stroke-width:1.00150788" />
    <path
       d="m 223.6,1008.2 c 0,-1.3148 -1.0659,-2.3814 -2.3813,-2.3814 -1.3155,0 -2.3828,1.0666 -2.3828,2.3814 0,1.3162 1.0674,2.382 2.3828,2.382 1.3154,0 2.3813,-1.0658 2.3813,-2.382"
       id="path3152"
       style="fill:#231f20;fill-rule:nonzero;stroke:#ffffff;stroke-width:1.00150788" />
    <path
       d="m 216.74,1015.8 0,-3.2259 c -3.5952,-0.3289 -6.12,0.5326 -8.0862,2.5877 l -0.18903,-2.6274 h -3.4543 v 19.067 h 3.6434 v -9.8794 c 0,-2.7566 2.2214,-6.2507 8.0862,-5.9216"
       id="path3154"
       style="fill:#231f20;fill-rule:nonzero;stroke:#ffffff;stroke-width:1.00150788" />
    <path
       d="m 198.59,1020.4 c 0,-2.5902 -2.6078,-4.7493 -5.8095,-4.7493 -3.4297,0 -6.2653,2.1155 -6.4943,4.7493 h 12.304 z m -16.146,1.6348 c 0,-5.9593 4.4033,-9.7853 10.286,-9.7853 5.842,0 9.859,4.2704 9.859,9.4566 0,0 0,0.8096 -0.0774,1.5453 l -16.281,0.069 c 0.15654,2.9429 3.5533,5.1613 7.0588,5.1613 3.7756,0 6.0135,-2.3369 6.0135,-2.3369 l 2.6055,2.2909 c -2.6444,2.5391 -5.5275,3.3116 -8.6179,3.3116 -6.4196,0 -10.847,-3.7532 -10.847,-9.5651 v -0.1475"
       id="path3156"
       style="fill:#231f20;fill-rule:nonzero;stroke:#ffffff;stroke-width:1.00150788" />
    <path
       d="m 160.7,1020.3 c -3.6654,-0.6549 -7.2699,-1.1122 -7.2699,-2.8215 0,-1.1138 1.1055,-2.0933 4.3136,-2.0933 2.3854,0 5.1367,0.5522 5.8812,2.2417 l 3.3803,-1.4197 c -1.2927,-2.5966 -5.118,-3.8471 -9.5142,-3.8471 -3.8444,0 -7.9674,1.4544 -7.9674,5.3447 0,3.3699 3.0665,4.4172 8.1232,5.3688 3.3785,0.6355 6.4936,0.9575 6.4936,2.7792 0,1.1489 -1.5329,2.6224 -5.3634,2.6224 -2.7243,0 -5.471,-0.5712 -6.3109,-2.5092 l -3.2776,1.3747 c 1.3446,2.9949 4.9102,4.5446 9.0419,4.5446 8.2502,0 9.8444,-3.9265 9.8444,-6.154 0,-3.7101 -3.6916,-4.7735 -7.3749,-5.4313"
       id="path3158"
       style="fill:#231f20;fill-rule:nonzero;stroke:#ffffff;stroke-width:1.00150788" />
    <path
       d="m 55.953,1031.7 c -4.5632,0 -6.8238,-2.9005 -6.8238,-2.9005 v 8.0287 h -3.5156 v -24.22 h 3.3258 l 0.18979,2.3686 c 0,0 2.214,-2.6197 6.7842,-2.6197 4.0211,0 9.8134,2.0502 9.8134,9.597 0,7.546 -5.211,9.7462 -9.7738,9.7462 z m -0.19054,-16.157 c -3.5313,0 -6.6333,2.0022 -6.6333,6.3737 0,4.3719 2.728,6.5574 6.5956,6.5574 2.0257,0 6.3012,-0.8218 6.3012,-6.4827 0,-5.6607 -4.2624,-6.4484 -6.2634,-6.4484"
       id="path3160"
       style="fill:#231f20;fill-rule:nonzero;stroke:#ffffff;stroke-width:1.00150788" />
    <path
       d="m 79.427,1021.9 c 0,-7.1641 5.7908,-9.5977 9.8149,-9.5977 4.5692,0 6.7816,2.6204 6.7816,2.6204 l 0.18866,-2.3686 h 3.3284 v 19.088 h -3.3194 l -0.19764,-2.5221 c 0,0 -2.2767,2.5266 -6.8223,2.5266 -4.5628,0 -9.7742,-2.6514 -9.7742,-9.7462 z m 3.7005,0.038 c 0,5.1889 4.2755,6.4827 6.3023,6.4827 3.8675,0 6.5937,-2.1855 6.5937,-6.5573 0,-4.372 -3.099,-6.3738 -6.6307,-6.3738 -2.0021,0 -6.2653,1.177 -6.2653,6.4484"
       id="path3162"
       style="fill:#231f20;fill-rule:nonzero;stroke:#ffffff;stroke-width:1.00150788" />
    <path
       d="m 79.693,1015.8 0,-3.2259 c -3.5963,-0.3289 -6.1222,0.5326 -8.0877,2.5877 l -0.18979,-2.6274 h -3.4543 v 19.067 h 3.6441 v -9.8794 c 0,-2.7566 2.2214,-6.2507 8.0877,-5.9216"
       id="path3164"
       style="fill:#231f20;fill-rule:nonzero;stroke:#ffffff;stroke-width:1.00150788" />
    <path
       d="m 13.559,1020.3 c -3.666,-0.6549 -7.2692,-1.1122 -7.2692,-2.8215 0,-1.1138 1.1053,-2.0933 4.3135,-2.0933 2.3842,0 5.1351,0.5522 5.8812,2.2417 l 3.3812,-1.4197 c -1.2948,-2.5966 -5.1202,-3.8471 -9.5147,-3.8471 -3.8433,0 -7.9697,1.4544 -7.9697,5.3447 0,3.3699 3.0675,4.4172 8.1254,5.3688 3.377,0.6355 6.4935,0.9575 6.4935,2.7792 0,1.1489 -1.5334,2.6224 -5.3641,2.6224 -2.7235,0 -5.4718,-0.5712 -6.3114,-2.5092 l -3.2752,1.3747 c 1.3418,2.9949 4.9083,4.5446 9.0399,4.5446 8.2487,0 9.845,-3.9265 9.845,-6.154 0,-3.7101 -3.6922,-4.7735 -7.3754,-5.4313"
       id="path3166"
       style="fill:#ffffff;fill-rule:nonzero;stroke:#ffffff;stroke-width:1.00150788" />
    <path
       d="m 33.029,1028.4 c -2.9937,0 -6.937,-1.2937 -6.937,-6.4827 0,-5.2714 4.3734,-6.3427 6.937,-6.3427 2.5633,0 6.9367,1.0713 6.9367,6.3427 0,5.189 -3.943,6.4827 -6.9367,6.4827 z m 0,-16.118 c -4.8721,0 -10.637,2.4336 -10.637,9.5977 0,7.0948 5.1875,9.852 10.637,9.852 5.4501,0 10.639,-2.7572 10.639,-9.852 0,-7.1641 -5.7669,-9.5977 -10.639,-9.5977"
       id="path3168"
       style="fill:#231f20;fill-rule:nonzero;stroke:#ffffff;stroke-width:1.00150788" />
    <path
       d="m 133.91,1031.5 c 0,0 -5.4815,3.4451 -15.153,3.4451 -3.7472,0 -6.9015,-0.5743 -8.2372,-1.8864 -1.4044,-1.382 -2.1662,-3.7114 -2.1662,-5.8522 0,-1.8343 0.76178,-3.3769 2.35,-3.3769 4.0775,0 16.782,6.4615 23.206,7.6704"
       id="path3170"
       style="fill:#ffffff;fill-opacity:1;fill-rule:nonzero" />
    <path
       d="m 115.64,1011.5 c 0.20137,-0.133 0.44346,-0.2847 0.66651,-0.4128 l 0.0683,-0.04 -0.0683,-0.011 c -4.3532,-1.1953 -8.6623,-1.15 -9.4891,1.5652 -1.07,3.5063 5.8529,7.2677 9.1219,9.0605 0.70052,0.3838 1.0031,0.144 0.55704,-0.3698 -2.0634,-2.3754 -5.0022,-7.0505 -0.85629,-9.7962"
       id="path3172"
       style="fill:#ffffff;fill-opacity:1;fill-rule:nonzero" />
    <path
       d="m 116.37,1011.1 c 0,0 5.4807,-3.4444 15.153,-3.4444 3.7472,0 6.9016,0.5738 8.2357,1.8863 1.4051,1.3818 2.1676,3.7098 2.1676,5.8508 0,1.8344 -0.76252,3.3767 -2.3503,3.3767 -4.0782,0 -16.781,-6.4607 -23.206,-7.6694"
       id="path3174"
       style="fill:#ffffff;fill-opacity:1;fill-rule:nonzero" />
    <path
       d="m 29.953,1031.3 c -1.7683,-0.4282 -4.1184,-1.6921 -5.037,-2.7088 -3.1442,-3.4802 -3.1815,-9.8866 -0.07569,-12.992 2.1261,-2.126 4.5501,-3.0429 8.0738,-3.0538 3.3769,-0.011 5.5181,0.6847 7.7542,2.517 3.5831,2.936 3.8193,9.8282 0.46403,13.542 -0.93551,1.0354 -3.6029,2.4105 -5.3897,2.7783 -1.5968,0.3287 -4.2474,0.2909 -5.7896,-0.083 z m 4.554,-2.9214 c 3.6621,-0.5943 5.4273,-2.6515 5.4608,-6.3641 0.01421,-1.5759 -0.07943,-2.0505 -0.62304,-3.1578 -1.0738,-2.1873 -3.1566,-3.2639 -6.3147,-3.2639 -3.158,0 -5.2409,1.0766 -6.3147,3.2639 -0.5436,1.1073 -0.63724,1.5819 -0.62304,3.1578 0.03676,4.0789 2.0676,6.0712 6.7059,6.5783 0.12751,0.014 0.89645,-0.083 1.7088,-0.2142 z"
       id="path2998"
       style="fill:#ffffff;stroke:#ffffff;stroke-width:1.00150788" />
    <path
       d="m 45.665,1024.7 0,-12.055 1.6228,0 1.6228,0 0,1.1591 c 0,0.6376 0.05945,1.1592 0.1321,1.1592 0.07266,0 0.61054,-0.3292 1.1953,-0.7315 2.4653,-1.6962 5.4311,-2.1792 8.4746,-1.3803 3.1491,0.8269 5.312,2.6871 6.3309,5.4449 0.51814,1.4025 0.60931,5.4811 0.1561,6.9834 -0.76017,2.5197 -2.9128,4.8125 -5.25,5.5919 -3.629,1.2102 -7.3844,0.6632 -9.8323,-1.4321 -0.51294,-0.4391 -0.99428,-0.7983 -1.0696,-0.7983 -0.07537,0 -0.13702,1.8256 -0.13702,4.057 v 4.0571 h -3.2456 v -12.055 z m 13.042,3.192 c 2.7437,-1.1654 4.0078,-4.4633 3.0896,-8.0608 -0.46494,-1.8216 -1.2623,-2.8682 -2.803,-3.6791 -1.0012,-0.527 -1.4396,-0.6093 -3.2441,-0.6093 -1.8262,0 -2.2549,0.083 -3.4364,0.6628 -2.2676,1.1135 -3.2357,2.9269 -3.2094,6.0119 0.01445,1.6942 0.67314,3.5047 1.6412,4.5109 1.7203,1.7882 5.27,2.3069 7.9621,1.1636 z"
       id="path3000"
       style="fill:#ffffff;stroke:#ffffff;stroke-width:1.00150788" />
    <path
       d="m 68.153,1022.1 0,-9.5051 1.6228,0 1.6228,0 0,1.275 c 0,0.7013 0.06839,1.2751 0.15199,1.2751 0.0836,0 0.5024,-0.2672 0.93069,-0.5939 1.4425,-1.1003 3.1576,-1.7262 5.1512,-1.8799 l 1.8802,-0.145 v 3.0491 l -1.333,0.1533 c -3.2336,0.3718 -4.8768,1.324 -5.9644,3.4562 l -0.70071,1.3737 -0.07634,5.5232 -0.07634,5.5233 h -3.2088 v -9.505 z"
       id="path3002"
       style="fill:#ffffff;stroke:#ffffff;stroke-width:1.00150788" />
    <path
       d="m 87.693,1031.4 c -4.6768,-0.6386 -7.6506,-3.7673 -8.0917,-8.5134 -0.36257,-3.9012 1.3653,-7.3767 4.4972,-9.046 3.6227,-1.9309 7.9709,-1.7651 10.851,0.414 0.49908,0.3776 0.98566,0.6896 1.0813,0.6931 0.09563,0 0.17387,-0.5152 0.17387,-1.1528 v -1.1591 h 3.2456 v 19.031 l -1.5649,-0.069 -1.5649,-0.069 -0.07008,-1.2171 c -0.03854,-0.6694 -0.12407,-1.2171 -0.19006,-1.2171 -0.06599,0 -0.59073,0.3239 -1.1661,0.7198 -1.9592,1.3479 -4.6296,1.9355 -7.2009,1.5845 z m 4.6031,-3.3763 c 1.142,-0.3604 2.5262,-1.5342 3.0862,-2.617 0.91812,-1.7755 0.87275,-5.0576 -0.09616,-6.9568 -1.8345,-3.596 -8.3013,-4.0181 -10.937,-0.7138 -1.3067,1.6385 -1.6608,4.9276 -0.76198,7.0788 1.2968,3.1035 4.8694,4.42 8.7085,3.2088 z"
       id="path3004"
       style="fill:#ffffff;stroke:#ffffff;stroke-width:1.00150788" />
    <path
       d="m 154.68,1031.3 c -0.66932,-0.1803 -1.6442,-0.5457 -2.1665,-0.8122 -1.0796,-0.5508 -2.9919,-2.3676 -2.9919,-2.8425 0,-0.1738 0.6388,-0.5916 1.4195,-0.9285 l 1.4195,-0.6125 0.45703,0.581 c 1.4306,1.8187 6.698,2.4597 9.7462,1.1861 1.7368,-0.7257 2.1049,-2.6468 0.66748,-3.4832 -0.42877,-0.2495 -2.6196,-0.848 -4.8684,-1.3299 -2.2489,-0.482 -4.5583,-1.0433 -5.1321,-1.2475 -2.4492,-0.8714 -3.4869,-2.1328 -3.4663,-4.2134 0.0295,-2.975 2.5493,-4.7931 7.0597,-5.0933 2.2805,-0.1517 5.1496,0.3314 7.0065,1.1799 1.3293,0.6074 2.8495,1.8444 2.8427,2.3132 -0.002,0.1343 -0.65888,0.511 -1.4599,0.8369 l -1.4563,0.5927 -0.63809,-0.6475 c -0.90305,-0.9163 -2.8421,-1.4258 -5.399,-1.4188 -2.4417,0.011 -3.7141,0.4686 -4.2182,1.5309 -0.26591,0.5604 -0.25545,0.7305 0.076,1.2365 0.5466,0.8342 1.5093,1.1683 6.0004,2.0832 6.5788,1.3401 8.2669,2.4827 8.2526,5.586 -0.0125,2.7154 -1.9891,4.6573 -5.6095,5.5109 -1.8312,0.4318 -5.9247,0.4274 -7.5416,-0.011 z"
       id="path3006"
       style="fill:#ffffff;stroke:#ffffff;stroke-width:1.00150788" />
    <path
       d="m 175.61,1031 c -1.2021,-0.44 -2.1526,-1.3512 -2.7583,-2.6441 -0.44848,-0.9573 -0.49541,-1.5254 -0.5699,-6.897 l -0.0812,-5.8537 h -3.6684 v -3.0138 h 3.7092 v -4.4048 h 3.4774 v 4.4048 h 5.7958 v 3.0138 h -5.7958 v 5.4371 c 0,3.4156 0.0936,5.6424 0.25159,5.9893 0.46305,1.0162 1.4961,1.4102 3.6218,1.3811 l 1.9224,-0.026 v 1.3486 c 0,1.2027 -0.0565,1.3639 -0.52163,1.4885 -0.97614,0.2617 -4.4523,0.1173 -5.3832,-0.2235 z"
       id="path3008"
       style="fill:#ffffff;stroke:#ffffff;stroke-width:1.00150788" />
    <path
       d="m 191.95,1031.5 c -4.3456,-0.7245 -6.2195,-1.7937 -8.0334,-4.5836 -0.86568,-1.3313 -1.2468,-2.8298 -1.2468,-4.9016 0,-5.7465 4.0123,-9.6088 9.9917,-9.6182 5.407,-0.011 9.4088,3.6047 9.6782,8.7383 l 0.10093,1.9232 h -8.1431 c -9.0441,0 -8.4864,-0.1133 -7.7836,1.5722 1.6802,4.0284 7.9375,5.1057 12.203,2.101 l 0.62339,-0.439 1.1636,1.0334 1.1636,1.0335 -0.80815,0.7096 c -1.018,0.8938 -2.1963,1.4977 -3.816,1.9557 -1.3392,0.3788 -4.1179,0.6382 -5.0933,0.4755 z m 6.6468,-11.836 c -0.69421,-4.2781 -7.6335,-5.6253 -10.982,-2.1322 -0.68405,0.7136 -1.4607,2.1688 -1.4607,2.7369 0,0.1586 2.1206,0.2392 6.2898,0.2392 h 6.2898 l -0.13695,-0.8439 z"
       id="path3010"
       style="fill:#ffffff;stroke:#ffffff;stroke-width:1.00150788" />
    <path
       d="m 205.16,1022.1 0,-9.5051 1.6228,0 1.6228,0 0,1.1454 c 0,1.3979 0.30667,1.6377 1.12,0.876 1.2684,-1.1879 3.7271,-2.0214 5.9622,-2.0214 h 1.0318 v 2.9531 l -0.86935,0.1437 c -0.47816,0.079 -1.1002,0.1449 -1.3823,0.1462 -0.97716,0 -3.0245,0.9447 -3.8908,1.786 -1.6386,1.5914 -1.729,2.0269 -1.7347,8.3592 l -0.005,5.6219 h -3.4774 v -9.505 z"
       id="path3012"
       style="fill:#ffffff;stroke:#ffffff;stroke-width:1.00150788" />
    <path
       d="m 219.54,1022 0,-9.3891 1.7387,0 1.7387,0 0,9.3891 0,9.3891 -1.7387,0 -1.7387,0 0,-9.3891 z"
       id="path3014"
       style="fill:#ffffff;stroke:#ffffff;stroke-width:1.00150788" />
    <path
       d="m 219.69,1009.7 c -1.2709,-1.2709 -0.51946,-3.426 1.2952,-3.7148 0.77004,-0.1226 0.95463,-0.046 1.7101,0.7094 0.75548,0.7555 0.83206,0.9402 0.70947,1.7101 -0.28889,1.8148 -2.444,2.5662 -3.7148,1.2953 z"
       id="path3016"
       style="fill:#ffffff;stroke:#ffffff;stroke-width:1.00150788" />
    <path
       d="m 233.92,1031.4 c -2.9834,-0.3731 -5.9598,-2.4502 -7.1139,-4.9643 -0.29439,-0.6413 -0.64204,-1.9191 -0.77259,-2.8396 -0.46771,-3.2977 0.43374,-6.3358 2.4545,-8.272 3.5384,-3.3904 9.1628,-3.7843 12.997,-0.9103 0.93182,0.6983 1,0.6927 1.0039,-0.085 0.008,-1.5416 0.15362,-1.6807 1.7626,-1.6807 h 1.4798 v 19.01 h -1.4798 c -1.6298,0 -1.7556,-0.1284 -1.7626,-1.7968 -0.002,-0.4144 -0.0448,-0.7534 -0.0957,-0.7534 -0.051,0 -0.63554,0.3653 -1.2991,0.8119 -1.9474,1.3105 -4.4308,1.8227 -7.1744,1.4795 z m 4.4155,-3.2393 c 1.3911,-0.3503 2.643,-1.4339 3.372,-2.9184 0.57702,-1.1751 0.66101,-1.6051 0.64859,-3.3205 -0.0212,-2.9375 -1.0389,-4.7408 -3.2659,-5.7876 -3.3534,-1.5763 -7.5418,-0.3572 -8.9979,2.6189 -1.1058,2.2602 -0.81925,5.698 0.62052,7.4448 1.7183,2.0845 4.3989,2.7748 7.6228,1.9628 z"
       id="path3018"
       style="fill:#ffffff;stroke:#ffffff;stroke-width:1.00150788" />
  </g>
</svg>
